<svg width="1066" height="389" viewBox="0 0 1066 389" fill="none" xmlns="http://www.w3.org/2000/svg">
<path d="M191.5 168L186 172.5L191.5 189L199 180.5L191.5 168Z" fill="#3138E9"/>
<path d="M191.5 168L186 172.5L191.5 189L199 180.5L191.5 168Z" fill="url(#paint0_radial)"/>
<path d="M191.5 168L186 172.5L191.5 189L199 180.5L191.5 168Z" stroke="#3138E9"/>
<path d="M786.5 317V310.5H790.5V317H786.5Z" fill="#3138E9"/>
<path d="M786.5 317V310.5H790.5V317H786.5Z" fill="url(#paint1_radial)"/>
<path d="M792.5 311.5V307H803V311.5H792.5Z" fill="#3138E9"/>
<path d="M792.5 311.5V307H803V311.5H792.5Z" fill="url(#paint2_radial)"/>
<path d="M786.5 317V310.5H790.5V317H786.5Z" stroke="#3138E9"/>
<path d="M792.5 311.5V307H803V311.5H792.5Z" stroke="#3138E9"/>
<rect x="993" y="152" width="10" height="10" fill="#3138E9"/>
<rect x="993" y="152" width="10" height="10" fill="url(#paint3_radial)"/>
<path d="M717 180.5V166H724.5V180.5H717Z" fill="#3138E9"/>
<path d="M717 180.5V166H724.5V180.5H717Z" fill="url(#paint4_radial)"/>
<path d="M717 180.5V166H724.5V180.5H717Z" stroke="#3138E9"/>
<path d="M780 220L781 198L799 199L798 220.5L780 220Z" fill="#3138E9"/>
<path d="M780 220L781 198L799 199L798 220.5L780 220Z" fill="url(#paint5_radial)"/>
<path d="M780 220L781 198L799 199L798 220.5L780 220Z" stroke="#3138E9"/>
<path d="M816.034 292.99L816.972 264.992C816.991 264.443 817.449 264.011 817.998 264.026L991.026 268.475C991.568 268.489 992 268.932 992 269.475V296.977C992 297.538 991.538 297.99 990.977 297.977L817.011 294.023C816.454 294.01 816.015 293.546 816.034 292.99Z" fill="#3138E9"/>
<path d="M816.034 292.99L816.972 264.992C816.991 264.443 817.449 264.011 817.998 264.026L991.026 268.475C991.568 268.489 992 268.932 992 269.475V296.977C992 297.538 991.538 297.99 990.977 297.977L817.011 294.023C816.454 294.01 816.015 293.546 816.034 292.99Z" fill="url(#paint6_radial)"/>
<path d="M816.034 292.99L816.972 264.992C816.991 264.443 817.449 264.011 817.998 264.026L991.026 268.475C991.568 268.489 992 268.932 992 269.475V296.977C992 297.538 991.538 297.99 990.977 297.977L817.011 294.023C816.454 294.01 816.015 293.546 816.034 292.99Z" stroke="#3138E9"/>
<path d="M375 209V196.512C375 195.955 375.455 195.505 376.012 195.512L539.512 197.488C540.06 197.495 540.5 197.94 540.5 198.488V266.991C540.5 267.547 540.047 267.996 539.491 267.991L375.991 266.509C375.442 266.504 375 266.058 375 265.509V239.5C375 238.948 375.448 238.5 376 238.5H377.5C378.052 238.5 378.5 238.052 378.5 237.5V232.5C378.5 231.948 378.052 231.5 377.5 231.5H376C375.448 231.5 375 231.052 375 230.5V218.5C375 217.948 375.448 217.5 376 217.5H377.5C378.052 217.5 378.5 217.052 378.5 216.5V211C378.5 210.448 378.052 210 377.5 210H376C375.448 210 375 209.552 375 209Z" fill="#3138E9"/>
<path d="M375 209V196.512C375 195.955 375.455 195.505 376.012 195.512L539.512 197.488C540.06 197.495 540.5 197.94 540.5 198.488V266.991C540.5 267.547 540.047 267.996 539.491 267.991L375.991 266.509C375.442 266.504 375 266.058 375 265.509V239.5C375 238.948 375.448 238.5 376 238.5H377.5C378.052 238.5 378.5 238.052 378.5 237.5V232.5C378.5 231.948 378.052 231.5 377.5 231.5H376C375.448 231.5 375 231.052 375 230.5V218.5C375 217.948 375.448 217.5 376 217.5H377.5C378.052 217.5 378.5 217.052 378.5 216.5V211C378.5 210.448 378.052 210 377.5 210H376C375.448 210 375 209.552 375 209Z" fill="url(#paint7_radial)"/>
<path d="M375 209V196.512C375 195.955 375.455 195.505 376.012 195.512L539.512 197.488C540.06 197.495 540.5 197.94 540.5 198.488V266.991C540.5 267.547 540.047 267.996 539.491 267.991L375.991 266.509C375.442 266.504 375 266.058 375 265.509V239.5C375 238.948 375.448 238.5 376 238.5H377.5C378.052 238.5 378.5 238.052 378.5 237.5V232.5C378.5 231.948 378.052 231.5 377.5 231.5H376C375.448 231.5 375 231.052 375 230.5V218.5C375 217.948 375.448 217.5 376 217.5H377.5C378.052 217.5 378.5 217.052 378.5 216.5V211C378.5 210.448 378.052 210 377.5 210H376C375.448 210 375 209.552 375 209Z" stroke="#3138E9"/>
<path d="M561 266.515V198.512C561 197.955 561.455 197.506 562.012 197.512L722.512 199.488C723.06 199.495 723.5 199.94 723.5 200.488V268.984C723.5 269.543 723.043 269.993 722.485 269.984L561.985 267.515C561.438 267.507 561 267.062 561 266.515Z" fill="#3138E9"/>
<path d="M561 266.515V198.512C561 197.955 561.455 197.506 562.012 197.512L722.512 199.488C723.06 199.495 723.5 199.94 723.5 200.488V268.984C723.5 269.543 723.043 269.993 722.485 269.984L561.985 267.515C561.438 267.507 561 267.062 561 266.515Z" fill="url(#paint8_radial)"/>
<path d="M561 266.515V198.512C561 197.955 561.455 197.506 562.012 197.512L722.512 199.488C723.06 199.495 723.5 199.94 723.5 200.488V268.984C723.5 269.543 723.043 269.993 722.485 269.984L561.985 267.515C561.438 267.507 561 267.062 561 266.515Z" stroke="#3138E9"/>
<path d="M238 175L232.5 170C233.833 168.333 236.8 164.9 238 164.5C239.2 164.1 242.167 168 243.5 170L238 175Z" fill="#3138E9"/>
<path d="M238 175L232.5 170C233.833 168.333 236.8 164.9 238 164.5C239.2 164.1 242.167 168 243.5 170L238 175Z" fill="url(#paint9_radial)"/>
<path d="M238 175L232.5 170C233.833 168.333 236.8 164.9 238 164.5C239.2 164.1 242.167 168 243.5 170L238 175Z" stroke="#3138E9"/>
<path d="M276.097 158.513L275.335 151.119C277.44 150.766 281.941 150.188 283.102 150.69C284.263 151.193 283.871 156.077 283.53 158.457L276.097 158.513Z" fill="#3138E9"/>
<path d="M276.097 158.513L275.335 151.119C277.44 150.766 281.941 150.188 283.102 150.69C284.263 151.193 283.871 156.077 283.53 158.457L276.097 158.513Z" fill="url(#paint10_radial)"/>
<path d="M276.097 158.513L275.335 151.119C277.44 150.766 281.941 150.188 283.102 150.69C284.263 151.193 283.871 156.077 283.53 158.457L276.097 158.513Z" stroke="#3138E9"/>
<path d="M209.5 244.5L203.5 240L211 229.5L218.5 235L209.5 244.5Z" fill="#3138E9"/>
<path d="M209.5 244.5L203.5 240L211 229.5L218.5 235L209.5 244.5Z" fill="url(#paint11_radial)"/>
<path d="M209.5 244.5L203.5 240L211 229.5L218.5 235L209.5 244.5Z" stroke="#3138E9"/>
<path d="M144.5 247.5L138.5 243L149 229.5L155 234.5L144.5 247.5Z" fill="#3138E9"/>
<path d="M144.5 247.5L138.5 243L149 229.5L155 234.5L144.5 247.5Z" fill="url(#paint12_radial)"/>
<path d="M144.5 247.5L138.5 243L149 229.5L155 234.5L144.5 247.5Z" stroke="#3138E9"/>
<path d="M202.5 246L186 267L198 275L213.5 254.5L202.5 246Z" fill="#3138E9"/>
<path d="M202.5 246L186 267L198 275L213.5 254.5L202.5 246Z" fill="url(#paint13_radial)"/>
<path d="M202.5 246L186 267L198 275L213.5 254.5L202.5 246Z" stroke="#3138E9"/>
<path d="M1.5 311L2.5 306L15.5 307.5L14.5 312.5L1.5 311Z" fill="#3138E9"/>
<path d="M1.5 311L2.5 306L15.5 307.5L14.5 312.5L1.5 311Z" fill="url(#paint14_radial)"/>
<path d="M1.5 311L2.5 306L15.5 307.5L14.5 312.5L1.5 311Z" stroke="#3138E9"/>
<path d="M30.5 338L28.5 340L30.5 364.5L36 368.5L48.5 353.5L30.5 338Z" fill="#3138E9"/>
<path d="M30.5 338L28.5 340L30.5 364.5L36 368.5L48.5 353.5L30.5 338Z" fill="url(#paint15_radial)"/>
<path d="M30.5 338L28.5 340L30.5 364.5L36 368.5L48.5 353.5L30.5 338Z" stroke="#3138E9"/>
<path d="M174.5 281.5L171 286L178 292L206.5 298.5L207.5 297.5L208.5 296L211.5 297.5L218 289.5L215 287.5L216.5 285.5L203.5 275.5L198 281.5L183 270.5L177 278.5L174.5 276.5L172 279.5L174.5 281.5Z" fill="#3138E9"/>
<path d="M174.5 281.5L171 286L178 292L206.5 298.5L207.5 297.5L208.5 296L211.5 297.5L218 289.5L215 287.5L216.5 285.5L203.5 275.5L198 281.5L183 270.5L177 278.5L174.5 276.5L172 279.5L174.5 281.5Z" fill="url(#paint16_radial)"/>
<path d="M174.5 281.5L171 286L178 292L206.5 298.5L207.5 297.5L208.5 296L211.5 297.5L218 289.5L215 287.5L216.5 285.5L203.5 275.5L198 281.5L183 270.5L177 278.5L174.5 276.5L172 279.5L174.5 281.5Z" stroke="#3138E9"/>
<path d="M1024.5 333.5V329.5H1044.5V333.5H1024.5Z" fill="#3138E9"/>
<path d="M1024.5 333.5V329.5H1044.5V333.5H1024.5Z" fill="url(#paint17_radial)"/>
<path d="M1024.5 333.5V329.5H1044.5V333.5H1024.5Z" stroke="#3138E9"/>
<path d="M1049.5 388.5V380.5H1059.5V388.5H1049.5Z" fill="#3138E9"/>
<path d="M1049.5 388.5V380.5H1059.5V388.5H1049.5Z" fill="url(#paint18_radial)"/>
<path d="M1049.5 388.5V380.5H1059.5V388.5H1049.5Z" stroke="#3138E9"/>
<rect x="76" y="317" width="10" height="10" fill="#188D40"/>
<rect x="76" y="317" width="10" height="10" fill="#188D40"/>
<rect x="76" y="317" width="10" height="10" fill="url(#paint19_radial)"/>
<rect x="39" y="8" width="10" height="10" fill="#188D40"/>
<rect x="39" y="8" width="10" height="10" fill="#188D40"/>
<rect x="39" y="8" width="10" height="10" fill="url(#paint20_radial)"/>
<rect x="176" y="184" width="10" height="10" fill="#188D40"/>
<rect x="176" y="184" width="10" height="10" fill="#188D40"/>
<rect x="176" y="184" width="10" height="10" fill="url(#paint21_radial)"/>
<rect x="296" y="120" width="10" height="10" fill="#188D40"/>
<rect x="296" y="120" width="10" height="10" fill="#188D40"/>
<rect x="296" y="120" width="10" height="10" fill="url(#paint22_radial)"/>
<rect x="556" y="128" width="10" height="10" fill="#188D40"/>
<rect x="556" y="128" width="10" height="10" fill="#188D40"/>
<rect x="556" y="128" width="10" height="10" fill="url(#paint23_radial)"/>
<rect x="909" y="128" width="10" height="10" fill="#188D40"/>
<rect x="909" y="128" width="10" height="10" fill="#188D40"/>
<rect x="909" y="128" width="10" height="10" fill="url(#paint24_radial)"/>
<rect x="1013" y="201" width="10" height="10" fill="#188D40"/>
<rect x="1013" y="201" width="10" height="10" fill="#188D40"/>
<rect x="1013" y="201" width="10" height="10" fill="url(#paint25_radial)"/>
<rect x="994" y="371" width="10" height="10" fill="#188D40"/>
<rect x="994" y="371" width="10" height="10" fill="#188D40"/>
<rect x="994" y="371" width="10" height="10" fill="url(#paint26_radial)"/>
<rect x="1056" y="375" width="10" height="10" fill="#188D40"/>
<rect x="1056" y="375" width="10" height="10" fill="#188D40"/>
<rect x="1056" y="375" width="10" height="10" fill="url(#paint27_radial)"/>
<rect x="377" y="296" width="10" height="10" fill="#188D40"/>
<rect x="377" y="296" width="10" height="10" fill="#188D40"/>
<rect x="377" y="296" width="10" height="10" fill="url(#paint28_radial)"/>
<rect x="85" y="13" width="10" height="10" fill="#188D40"/>
<rect x="85" y="13" width="10" height="10" fill="#D6BD2C"/>
<rect x="85" y="13" width="10" height="10" fill="url(#paint29_radial)"/>
<rect x="44" y="101" width="10" height="10" fill="#188D40"/>
<rect x="44" y="101" width="10" height="10" fill="#D6BD2C"/>
<rect x="44" y="101" width="10" height="10" fill="url(#paint30_radial)"/>
<rect x="90" y="91" width="10" height="10" fill="#188D40"/>
<rect x="90" y="91" width="10" height="10" fill="#D6BD2C"/>
<rect x="90" y="91" width="10" height="10" fill="url(#paint31_radial)"/>
<rect x="106" y="49" width="10" height="10" fill="#188D40"/>
<rect x="106" y="49" width="10" height="10" fill="#D6BD2C"/>
<rect x="106" y="49" width="10" height="10" fill="url(#paint32_radial)"/>
<rect x="137" y="70" width="10" height="10" fill="#188D40"/>
<rect x="137" y="70" width="10" height="10" fill="#D6BD2C"/>
<rect x="137" y="70" width="10" height="10" fill="url(#paint33_radial)"/>
<rect x="106" y="120" width="10" height="10" fill="#188D40"/>
<rect x="106" y="120" width="10" height="10" fill="#D6BD2C"/>
<rect x="106" y="120" width="10" height="10" fill="url(#paint34_radial)"/>
<rect x="116" y="137" width="10" height="10" fill="#188D40"/>
<rect x="116" y="137" width="10" height="10" fill="#D6BD2C"/>
<rect x="116" y="137" width="10" height="10" fill="url(#paint35_radial)"/>
<rect x="150" y="91" width="10" height="10" fill="#188D40"/>
<rect x="150" y="91" width="10" height="10" fill="#D6BD2C"/>
<rect x="150" y="91" width="10" height="10" fill="url(#paint36_radial)"/>
<rect x="166" y="115" width="10" height="10" fill="#188D40"/>
<rect x="166" y="115" width="10" height="10" fill="#D6BD2C"/>
<rect x="166" y="115" width="10" height="10" fill="url(#paint37_radial)"/>
<rect x="190" y="152" width="10" height="10" fill="#188D40"/>
<rect x="190" y="152" width="10" height="10" fill="#D6BD2C"/>
<rect x="190" y="152" width="10" height="10" fill="url(#paint38_radial)"/>
<rect x="320" y="154" width="10" height="10" fill="#188D40"/>
<rect x="320" y="154" width="10" height="10" fill="#D6BD2C"/>
<rect x="320" y="154" width="10" height="10" fill="url(#paint39_radial)"/>
<rect x="319" y="173" width="10" height="10" fill="#188D40"/>
<rect x="319" y="173" width="10" height="10" fill="#D6BD2C"/>
<rect x="319" y="173" width="10" height="10" fill="url(#paint40_radial)"/>
<rect x="319" y="211" width="10" height="10" fill="#188D40"/>
<rect x="319" y="211" width="10" height="10" fill="#D6BD2C"/>
<rect x="319" y="211" width="10" height="10" fill="url(#paint41_radial)"/>
<rect x="319" y="230" width="10" height="10" fill="#188D40"/>
<rect x="319" y="230" width="10" height="10" fill="#D6BD2C"/>
<rect x="319" y="230" width="10" height="10" fill="url(#paint42_radial)"/>
<rect x="319" y="249" width="10" height="10" fill="#188D40"/>
<rect x="319" y="249" width="10" height="10" fill="#D6BD2C"/>
<rect x="319" y="249" width="10" height="10" fill="url(#paint43_radial)"/>
<rect x="395" width="15" height="15" fill="#188D40"/>
<rect x="395" width="15" height="15" fill="#3138E9"/>
<rect x="395" width="15" height="15" fill="url(#paint44_radial)"/>
<path d="M437.259 14H435.562V2.5918H429.252V14H427.564V1.20312H437.259V14ZM439.649 9.15723C439.649 8.22559 439.831 7.3877 440.194 6.64355C440.563 5.89941 441.073 5.3252 441.724 4.9209C442.38 4.5166 443.127 4.31445 443.965 4.31445C445.26 4.31445 446.306 4.7627 447.103 5.65918C447.905 6.55566 448.307 7.74805 448.307 9.23633V9.35059C448.307 10.2764 448.128 11.1084 447.771 11.8467C447.419 12.5791 446.912 13.1504 446.25 13.5605C445.594 13.9707 444.838 14.1758 443.982 14.1758C442.693 14.1758 441.647 13.7275 440.845 12.8311C440.048 11.9346 439.649 10.748 439.649 9.27148V9.15723ZM441.284 9.35059C441.284 10.4053 441.527 11.252 442.014 11.8906C442.506 12.5293 443.162 12.8486 443.982 12.8486C444.809 12.8486 445.465 12.5264 445.951 11.8818C446.438 11.2314 446.681 10.3232 446.681 9.15723C446.681 8.11426 446.432 7.27051 445.934 6.62598C445.441 5.97559 444.785 5.65039 443.965 5.65039C443.162 5.65039 442.515 5.96973 442.022 6.6084C441.53 7.24707 441.284 8.16113 441.284 9.35059ZM449.634 12.6729L450.196 11.9785C450.829 11.1582 451.189 9.92773 451.277 8.28711L451.427 4.49023H457.553V12.6729H458.774V16.7949H457.148V14H450.513V16.7949H448.887L448.896 12.6729H449.634ZM451.559 12.6729H455.927V5.99316H453L452.903 8.26074C452.804 10.1533 452.355 11.624 451.559 12.6729ZM472.811 14H471.185V9.93945H466.816V14H465.182V4.49023H466.816V8.6123H471.185V4.49023H472.811V14ZM481.301 14C481.207 13.8125 481.131 13.4785 481.072 12.998C480.316 13.7832 479.414 14.1758 478.365 14.1758C477.428 14.1758 476.657 13.9121 476.054 13.3848C475.456 12.8516 475.157 12.1777 475.157 11.3633C475.157 10.373 475.532 9.60547 476.282 9.06055C477.038 8.50977 478.099 8.23438 479.464 8.23438H481.046V7.4873C481.046 6.91895 480.876 6.46777 480.536 6.13379C480.196 5.79395 479.695 5.62402 479.033 5.62402C478.453 5.62402 477.967 5.77051 477.574 6.06348C477.182 6.35645 476.985 6.71094 476.985 7.12695H475.351C475.351 6.65234 475.518 6.19531 475.852 5.75586C476.191 5.31055 476.648 4.95898 477.223 4.70117C477.803 4.44336 478.438 4.31445 479.13 4.31445C480.226 4.31445 481.084 4.58984 481.705 5.14062C482.326 5.68555 482.648 6.43848 482.672 7.39941V11.7764C482.672 12.6494 482.783 13.3438 483.006 13.8594V14H481.301ZM478.603 12.7607C479.112 12.7607 479.596 12.6289 480.053 12.3652C480.51 12.1016 480.841 11.7588 481.046 11.3369V9.38574H479.771C477.779 9.38574 476.783 9.96875 476.783 11.1348C476.783 11.6445 476.953 12.043 477.293 12.3301C477.633 12.6172 478.069 12.7607 478.603 12.7607ZM492.999 14H491.373V5.83496H486.996V14H485.361V4.49023H492.999V14ZM503.643 9.35059C503.643 10.7979 503.312 11.9639 502.649 12.8486C501.987 13.7334 501.091 14.1758 499.96 14.1758C498.806 14.1758 497.897 13.8096 497.235 13.0771V17.6562H495.609V4.49023H497.095L497.174 5.54492C497.836 4.72461 498.756 4.31445 499.934 4.31445C501.076 4.31445 501.979 4.74512 502.641 5.60645C503.309 6.46777 503.643 7.66602 503.643 9.20117V9.35059ZM502.017 9.16602C502.017 8.09375 501.788 7.24707 501.331 6.62598C500.874 6.00488 500.247 5.69434 499.45 5.69434C498.466 5.69434 497.728 6.13086 497.235 7.00391V11.5479C497.722 12.415 498.466 12.8486 499.468 12.8486C500.247 12.8486 500.865 12.541 501.322 11.9258C501.785 11.3047 502.017 10.3848 502.017 9.16602ZM512.985 4.49023V14H511.351V10.2998H508.898L506.657 14H504.899L507.29 10.0537C506.681 9.83105 506.212 9.48828 505.884 9.02539C505.562 8.55664 505.4 8.01172 505.4 7.39062C505.4 6.52344 505.726 5.82617 506.376 5.29883C507.026 4.76562 507.896 4.49609 508.986 4.49023H512.985ZM507.035 7.4082C507.035 7.87109 507.193 8.24609 507.51 8.5332C507.826 8.81445 508.245 8.95801 508.767 8.96387H511.351V5.80859H509.013C508.409 5.80859 507.929 5.95801 507.571 6.25684C507.214 6.5498 507.035 6.93359 507.035 7.4082ZM523.181 9.86914H522.038V14H520.412V9.86914H519.27L516.606 14H514.55L517.951 9.07812L514.875 4.49023H516.844L519.296 8.42773H520.412V4.49023H522.038V8.42773H523.146L525.615 4.49023H527.584L524.499 9.08691L527.9 14H525.844L523.181 9.86914ZM533.147 14.1758C531.858 14.1758 530.81 13.7539 530.001 12.9102C529.192 12.0605 528.788 10.9268 528.788 9.50879V9.20996C528.788 8.2666 528.967 7.42578 529.324 6.6875C529.688 5.94336 530.191 5.36328 530.836 4.94727C531.486 4.52539 532.189 4.31445 532.945 4.31445C534.182 4.31445 535.143 4.72168 535.828 5.53613C536.514 6.35059 536.856 7.5166 536.856 9.03418V9.71094H530.414C530.438 10.6484 530.71 11.4072 531.231 11.9873C531.759 12.5615 532.427 12.8486 533.235 12.8486C533.81 12.8486 534.296 12.7314 534.694 12.4971C535.093 12.2627 535.441 11.9521 535.74 11.5654L536.733 12.3389C535.937 13.5635 534.741 14.1758 533.147 14.1758ZM532.945 5.65039C532.289 5.65039 531.738 5.89062 531.293 6.37109C530.848 6.8457 530.572 7.51367 530.467 8.375H535.23V8.25195C535.184 7.42578 534.961 6.78711 534.562 6.33594C534.164 5.87891 533.625 5.65039 532.945 5.65039ZM546.516 14H544.89V9.93945H540.521V14H538.887V4.49023H540.521V8.6123H544.89V4.49023H546.516V14ZM555.287 4.49023H556.913V14H555.287V7.06543L550.901 14H549.275V4.49023H550.901V11.4336L555.287 4.49023ZM563.47 14.1758C562.181 14.1758 561.132 13.7539 560.323 12.9102C559.515 12.0605 559.11 10.9268 559.11 9.50879V9.20996C559.11 8.2666 559.289 7.42578 559.646 6.6875C560.01 5.94336 560.514 5.36328 561.158 4.94727C561.809 4.52539 562.512 4.31445 563.268 4.31445C564.504 4.31445 565.465 4.72168 566.15 5.53613C566.836 6.35059 567.179 7.5166 567.179 9.03418V9.71094H560.736C560.76 10.6484 561.032 11.4072 561.554 11.9873C562.081 12.5615 562.749 12.8486 563.558 12.8486C564.132 12.8486 564.618 12.7314 565.017 12.4971C565.415 12.2627 565.764 11.9521 566.062 11.5654L567.056 12.3389C566.259 13.5635 565.063 14.1758 563.47 14.1758ZM563.268 5.65039C562.611 5.65039 562.061 5.89062 561.615 6.37109C561.17 6.8457 560.895 7.51367 560.789 8.375H565.553V8.25195C565.506 7.42578 565.283 6.78711 564.885 6.33594C564.486 5.87891 563.947 5.65039 563.268 5.65039ZM574.544 11.8467L577.778 4.49023H579.809V14H578.183V7.08301L575.106 14H573.981L570.844 6.93359V14H569.218V4.49023H571.327L574.544 11.8467Z" fill="black"/>
<rect x="395" y="40" width="15" height="15" fill="#188D40"/>
<rect x="395" y="40" width="15" height="15" fill="#188D40"/>
<rect x="395" y="40" width="15" height="15" fill="url(#paint45_radial)"/>
<path d="M437.329 48.0146C437.329 49.2686 437.118 50.3643 436.696 51.3018C436.274 52.2334 435.677 52.9453 434.903 53.4375C434.13 53.9297 433.228 54.1758 432.196 54.1758C431.188 54.1758 430.295 53.9297 429.516 53.4375C428.736 52.9395 428.13 52.2334 427.696 51.3193C427.269 50.3994 427.049 49.3359 427.037 48.1289V47.2061C427.037 45.9756 427.251 44.8887 427.679 43.9453C428.106 43.002 428.71 42.2812 429.489 41.7832C430.274 41.2793 431.171 41.0273 432.179 41.0273C433.204 41.0273 434.106 41.2764 434.886 41.7744C435.671 42.2666 436.274 42.9844 436.696 43.9277C437.118 44.8652 437.329 45.958 437.329 47.2061V48.0146ZM435.65 47.1885C435.65 45.6709 435.346 44.5078 434.736 43.6992C434.127 42.8848 433.274 42.4775 432.179 42.4775C431.112 42.4775 430.271 42.8848 429.656 43.6992C429.047 44.5078 428.733 45.6328 428.716 47.0742V48.0146C428.716 49.4854 429.023 50.6426 429.639 51.4863C430.26 52.3242 431.112 52.7432 432.196 52.7432C433.286 52.7432 434.13 52.3477 434.728 51.5566C435.325 50.7598 435.633 49.6201 435.65 48.1377V47.1885ZM442.796 47.9619L444.905 44.4902H446.804L443.692 49.1924L446.9 54H445.02L442.822 50.4404L440.625 54H438.735L441.943 49.1924L438.832 44.4902H440.713L442.796 47.9619ZM456.568 49.3506C456.568 50.7979 456.237 51.9639 455.575 52.8486C454.913 53.7334 454.017 54.1758 452.886 54.1758C451.731 54.1758 450.823 53.8096 450.161 53.0771V57.6562H448.535V44.4902H450.021L450.1 45.5449C450.762 44.7246 451.682 44.3145 452.859 44.3145C454.002 44.3145 454.904 44.7451 455.566 45.6064C456.234 46.4678 456.568 47.666 456.568 49.2012V49.3506ZM454.942 49.166C454.942 48.0938 454.714 47.2471 454.257 46.626C453.8 46.0049 453.173 45.6943 452.376 45.6943C451.392 45.6943 450.653 46.1309 450.161 47.0039V51.5479C450.647 52.415 451.392 52.8486 452.394 52.8486C453.173 52.8486 453.791 52.541 454.248 51.9258C454.711 51.3047 454.942 50.3848 454.942 49.166ZM464.514 54C464.42 53.8125 464.344 53.4785 464.285 52.998C463.529 53.7832 462.627 54.1758 461.578 54.1758C460.641 54.1758 459.87 53.9121 459.267 53.3848C458.669 52.8516 458.37 52.1777 458.37 51.3633C458.37 50.373 458.745 49.6055 459.495 49.0605C460.251 48.5098 461.312 48.2344 462.677 48.2344H464.259V47.4873C464.259 46.9189 464.089 46.4678 463.749 46.1338C463.409 45.7939 462.908 45.624 462.246 45.624C461.666 45.624 461.18 45.7705 460.787 46.0635C460.395 46.3564 460.198 46.7109 460.198 47.127H458.563C458.563 46.6523 458.73 46.1953 459.064 45.7559C459.404 45.3105 459.861 44.959 460.436 44.7012C461.016 44.4434 461.651 44.3145 462.343 44.3145C463.438 44.3145 464.297 44.5898 464.918 45.1406C465.539 45.6855 465.861 46.4385 465.885 47.3994V51.7764C465.885 52.6494 465.996 53.3438 466.219 53.8594V54H464.514ZM461.815 52.7607C462.325 52.7607 462.809 52.6289 463.266 52.3652C463.723 52.1016 464.054 51.7588 464.259 51.3369V49.3857H462.984C460.992 49.3857 459.996 49.9688 459.996 51.1348C459.996 51.6445 460.166 52.043 460.506 52.3301C460.846 52.6172 461.282 52.7607 461.815 52.7607ZM476.203 54H474.577V49.9395H470.209V54H468.574V44.4902H470.209V48.6123H474.577V44.4902H476.203V54ZM486.592 54H484.966V49.9395H480.598V54H478.963V44.4902H480.598V48.6123H484.966V44.4902H486.592V54ZM490.986 47.7686H493.456C494.534 47.7803 495.387 48.0615 496.014 48.6123C496.641 49.1631 496.954 49.9102 496.954 50.8535C496.954 51.8027 496.632 52.5645 495.987 53.1387C495.343 53.7129 494.476 54 493.386 54H489.36V44.4902H490.986V47.7686ZM500.347 54H498.712V44.4902H500.347V54ZM490.986 49.0957V52.6729H493.403C494.013 52.6729 494.484 52.5176 494.818 52.207C495.152 51.8906 495.319 51.46 495.319 50.915C495.319 50.3877 495.155 49.957 494.827 49.623C494.505 49.2832 494.051 49.1074 493.465 49.0957H490.986ZM507.132 54.1758C505.843 54.1758 504.794 53.7539 503.985 52.9102C503.177 52.0605 502.772 50.9268 502.772 49.5088V49.21C502.772 48.2666 502.951 47.4258 503.309 46.6875C503.672 45.9434 504.176 45.3633 504.82 44.9473C505.471 44.5254 506.174 44.3145 506.93 44.3145C508.166 44.3145 509.127 44.7217 509.812 45.5361C510.498 46.3506 510.841 47.5166 510.841 49.0342V49.7109H504.398C504.422 50.6484 504.694 51.4072 505.216 51.9873C505.743 52.5615 506.411 52.8486 507.22 52.8486C507.794 52.8486 508.28 52.7314 508.679 52.4971C509.077 52.2627 509.426 51.9521 509.725 51.5654L510.718 52.3389C509.921 53.5635 508.726 54.1758 507.132 54.1758ZM506.93 45.6504C506.273 45.6504 505.723 45.8906 505.277 46.3711C504.832 46.8457 504.557 47.5137 504.451 48.375H509.215V48.252C509.168 47.4258 508.945 46.7871 508.547 46.3359C508.148 45.8789 507.609 45.6504 506.93 45.6504ZM524.974 54H523.348V45.835H518.971V54H517.336V44.4902H524.974V54ZM527.153 49.1572C527.153 48.2256 527.335 47.3877 527.698 46.6436C528.067 45.8994 528.577 45.3252 529.228 44.9209C529.884 44.5166 530.631 44.3145 531.469 44.3145C532.764 44.3145 533.81 44.7627 534.606 45.6592C535.409 46.5557 535.811 47.748 535.811 49.2363V49.3506C535.811 50.2764 535.632 51.1084 535.274 51.8467C534.923 52.5791 534.416 53.1504 533.754 53.5605C533.098 53.9707 532.342 54.1758 531.486 54.1758C530.197 54.1758 529.151 53.7275 528.349 52.8311C527.552 51.9346 527.153 50.748 527.153 49.2715V49.1572ZM528.788 49.3506C528.788 50.4053 529.031 51.252 529.518 51.8906C530.01 52.5293 530.666 52.8486 531.486 52.8486C532.312 52.8486 532.969 52.5264 533.455 51.8818C533.941 51.2314 534.185 50.3232 534.185 49.1572C534.185 48.1143 533.936 47.2705 533.438 46.626C532.945 45.9756 532.289 45.6504 531.469 45.6504C530.666 45.6504 530.019 45.9697 529.526 46.6084C529.034 47.2471 528.788 48.1611 528.788 49.3506ZM541.664 52.8486C542.244 52.8486 542.751 52.6729 543.185 52.3213C543.618 51.9697 543.858 51.5303 543.905 51.0029H545.443C545.414 51.5479 545.227 52.0664 544.881 52.5586C544.535 53.0508 544.072 53.4434 543.492 53.7363C542.918 54.0293 542.309 54.1758 541.664 54.1758C540.369 54.1758 539.338 53.7451 538.57 52.8838C537.809 52.0166 537.428 50.833 537.428 49.333V49.0605C537.428 48.1348 537.598 47.3115 537.938 46.5908C538.277 45.8701 538.764 45.3105 539.396 44.9121C540.035 44.5137 540.788 44.3145 541.655 44.3145C542.722 44.3145 543.606 44.6338 544.31 45.2725C545.019 45.9111 545.396 46.7402 545.443 47.7598H543.905C543.858 47.1445 543.624 46.6406 543.202 46.248C542.786 45.8496 542.271 45.6504 541.655 45.6504C540.829 45.6504 540.188 45.9492 539.73 46.5469C539.279 47.1387 539.054 47.9971 539.054 49.1221V49.4297C539.054 50.5254 539.279 51.3691 539.73 51.9609C540.182 52.5527 540.826 52.8486 541.664 52.8486ZM554.338 45.8086H551.147V54H549.521V45.8086H546.393V44.4902H554.338V45.8086ZM557.695 47.7686H560.165C561.243 47.7803 562.096 48.0615 562.723 48.6123C563.35 49.1631 563.663 49.9102 563.663 50.8535C563.663 51.8027 563.341 52.5645 562.696 53.1387C562.052 53.7129 561.185 54 560.095 54H556.069V44.4902H557.695V47.7686ZM567.056 54H565.421V44.4902H567.056V54ZM557.695 49.0957V52.6729H560.112C560.722 52.6729 561.193 52.5176 561.527 52.207C561.861 51.8906 562.028 51.46 562.028 50.915C562.028 50.3877 561.864 49.957 561.536 49.623C561.214 49.2832 560.76 49.1074 560.174 49.0957H557.695Z" fill="black"/>
<rect x="615" width="15" height="15" fill="#188D40"/>
<rect x="615" width="15" height="15" fill="#D6BD2C"/>
<rect x="615" width="15" height="15" fill="url(#paint46_radial)"/>
<path d="M649.243 1.20312V12.6201H653.646V1.20312H655.325V12.6201H659.702V1.20312H661.39V12.6729H662.682L662.523 17.085H661.073V14H647.547V1.20312H649.243ZM666.61 8.99023V14H664.923V1.20312H669.643C671.043 1.20312 672.139 1.56055 672.93 2.27539C673.727 2.99023 674.125 3.93652 674.125 5.11426C674.125 6.35645 673.735 7.31445 672.956 7.98828C672.183 8.65625 671.072 8.99023 669.625 8.99023H666.61ZM666.61 7.61035H669.643C670.545 7.61035 671.236 7.39941 671.717 6.97754C672.197 6.5498 672.438 5.93457 672.438 5.13184C672.438 4.37012 672.197 3.76074 671.717 3.30371C671.236 2.84668 670.577 2.60938 669.739 2.5918H666.61V7.61035Z" fill="black"/>
<rect x="615" y="40" width="15" height="15" fill="#188D40"/>
<rect x="615" y="40" width="15" height="15" fill="#BC0EA0"/>
<rect x="615" y="40" width="15" height="15" fill="url(#paint47_radial)"/>
<path d="M658.999 57.1377H657.32V54H648.136V57.1465H646.448L646.439 52.6201H647.485C648.036 51.999 648.473 51.167 648.795 50.124C649.123 49.0752 649.328 47.9268 649.41 46.6787L649.691 41.2031H657.347V52.6201H659.017L658.999 57.1377ZM649.41 52.6201H655.65V42.5918H651.317L651.133 46.3535C651.057 47.8242 650.86 49.0781 650.544 50.1152C650.233 51.1523 649.855 51.9873 649.41 52.6201ZM664.712 54.1758C663.423 54.1758 662.374 53.7539 661.565 52.9102C660.757 52.0605 660.353 50.9268 660.353 49.5088V49.21C660.353 48.2666 660.531 47.4258 660.889 46.6875C661.252 45.9434 661.756 45.3633 662.4 44.9473C663.051 44.5254 663.754 44.3145 664.51 44.3145C665.746 44.3145 666.707 44.7217 667.393 45.5361C668.078 46.3506 668.421 47.5166 668.421 49.0342V49.7109H661.979C662.002 50.6484 662.274 51.4072 662.796 51.9873C663.323 52.5615 663.991 52.8486 664.8 52.8486C665.374 52.8486 665.86 52.7314 666.259 52.4971C666.657 52.2627 667.006 51.9521 667.305 51.5654L668.298 52.3389C667.501 53.5635 666.306 54.1758 664.712 54.1758ZM664.51 45.6504C663.854 45.6504 663.303 45.8906 662.857 46.3711C662.412 46.8457 662.137 47.5137 662.031 48.375H666.795V48.252C666.748 47.4258 666.525 46.7871 666.127 46.3359C665.729 45.8789 665.189 45.6504 664.51 45.6504ZM677.896 49.8691H676.753V54H675.127V49.8691H673.984L671.321 54H669.265L672.666 49.0781L669.59 44.4902H671.559L674.011 48.4277H675.127V44.4902H676.753V48.4277H677.86L680.33 44.4902H682.299L679.214 49.0869L682.615 54H680.559L677.896 49.8691ZM687.203 51.6182L689.418 44.4902H691.158L687.335 55.4678C686.743 57.0498 685.803 57.8408 684.514 57.8408L684.206 57.8145L683.6 57.7002V56.3818L684.039 56.417C684.59 56.417 685.018 56.3057 685.322 56.083C685.633 55.8604 685.888 55.4531 686.087 54.8613L686.447 53.8945L683.055 44.4902H684.83L687.203 51.6182ZM700.65 49.3506C700.65 50.7979 700.319 51.9639 699.657 52.8486C698.995 53.7334 698.099 54.1758 696.968 54.1758C695.813 54.1758 694.905 53.8096 694.243 53.0771V57.6562H692.617V44.4902H694.103L694.182 45.5449C694.844 44.7246 695.764 44.3145 696.941 44.3145C698.084 44.3145 698.986 44.7451 699.648 45.6064C700.316 46.4678 700.65 47.666 700.65 49.2012V49.3506ZM699.024 49.166C699.024 48.0938 698.796 47.2471 698.339 46.626C697.882 46.0049 697.255 45.6943 696.458 45.6943C695.474 45.6943 694.735 46.1309 694.243 47.0039V51.5479C694.729 52.415 695.474 52.8486 696.476 52.8486C697.255 52.8486 697.873 52.541 698.33 51.9258C698.793 51.3047 699.024 50.3848 699.024 49.166ZM710.494 54H708.868V49.9395H704.5V54H702.865V44.4902H704.5V48.6123H708.868V44.4902H710.494V54ZM714.889 47.7686H717.358C718.437 47.7803 719.289 48.0615 719.916 48.6123C720.543 49.1631 720.856 49.9102 720.856 50.8535C720.856 51.8027 720.534 52.5645 719.89 53.1387C719.245 53.7129 718.378 54 717.288 54H713.263V44.4902H714.889V47.7686ZM724.249 54H722.614V44.4902H724.249V54ZM714.889 49.0957V52.6729H717.306C717.915 52.6729 718.387 52.5176 718.721 52.207C719.055 51.8906 719.222 51.46 719.222 50.915C719.222 50.3877 719.058 49.957 718.729 49.623C718.407 49.2832 717.953 49.1074 717.367 49.0957H714.889ZM733.24 44.4902H734.866V54H733.24V47.0654L728.854 54H727.229V44.4902H728.854V51.4336L733.24 44.4902ZM733.68 41.0273C733.68 41.7363 733.437 42.3076 732.95 42.7412C732.47 43.1689 731.837 43.3828 731.052 43.3828C730.267 43.3828 729.631 43.166 729.145 42.7324C728.658 42.2988 728.415 41.7305 728.415 41.0273H729.742C729.742 41.4375 729.854 41.7598 730.076 41.9941C730.299 42.2227 730.624 42.3369 731.052 42.3369C731.462 42.3369 731.781 42.2227 732.01 41.9941C732.244 41.7656 732.361 41.4434 732.361 41.0273H733.68ZM745.281 45.6504C744.701 45.6504 744.197 45.835 743.77 46.2041C743.348 46.5732 743.137 47.0098 743.137 47.5137H741.59C741.59 46.9688 741.763 46.4473 742.108 45.9492C742.454 45.4512 742.914 45.0557 743.488 44.7627C744.062 44.4639 744.66 44.3145 745.281 44.3145C746.518 44.3145 747.517 44.7627 748.278 45.6592C749.046 46.5498 749.43 47.7158 749.43 49.1572V49.4297C749.43 50.3203 749.254 51.1348 748.902 51.873C748.557 52.6055 748.067 53.1738 747.435 53.5781C746.808 53.9766 746.09 54.1758 745.281 54.1758C744.227 54.1758 743.348 53.8477 742.645 53.1914C741.941 52.5352 741.59 51.7178 741.59 50.7393H743.137C743.137 51.3369 743.345 51.8408 743.761 52.251C744.177 52.6553 744.684 52.8574 745.281 52.8574C745.979 52.8574 746.553 52.5879 747.004 52.0488C747.455 51.5098 747.716 50.7686 747.786 49.8252H744.218V48.4893H747.769C747.687 47.6338 747.426 46.9482 746.986 46.4326C746.547 45.9111 745.979 45.6504 745.281 45.6504ZM759.3 44.4902V54H757.665V45.835H754.431L754.237 49.3945C754.132 51.0293 753.856 52.1982 753.411 52.9014C752.972 53.6045 752.271 53.9707 751.311 54H750.66V52.5674L751.126 52.5322C751.653 52.4736 752.031 52.1689 752.26 51.6182C752.488 51.0674 752.635 50.0479 752.699 48.5596L752.875 44.4902H759.3ZM765.856 54.1758C764.567 54.1758 763.519 53.7539 762.71 52.9102C761.901 52.0605 761.497 50.9268 761.497 49.5088V49.21C761.497 48.2666 761.676 47.4258 762.033 46.6875C762.396 45.9434 762.9 45.3633 763.545 44.9473C764.195 44.5254 764.898 44.3145 765.654 44.3145C766.891 44.3145 767.852 44.7217 768.537 45.5361C769.223 46.3506 769.565 47.5166 769.565 49.0342V49.7109H763.123C763.146 50.6484 763.419 51.4072 763.94 51.9873C764.468 52.5615 765.136 52.8486 765.944 52.8486C766.519 52.8486 767.005 52.7314 767.403 52.4971C767.802 52.2627 768.15 51.9521 768.449 51.5654L769.442 52.3389C768.646 53.5635 767.45 54.1758 765.856 54.1758ZM765.654 45.6504C764.998 45.6504 764.447 45.8906 764.002 46.3711C763.557 46.8457 763.281 47.5137 763.176 48.375H767.939V48.252C767.893 47.4258 767.67 46.7871 767.271 46.3359C766.873 45.8789 766.334 45.6504 765.654 45.6504ZM774.417 49.9482H773.23V54H771.596V44.4902H773.23V48.5156H774.294L777.493 44.4902H779.462L775.7 49.0605L779.778 54H777.713L774.417 49.9482ZM788.242 45.8086H785.052V54H783.426V45.8086H780.297V44.4902H788.242V45.8086ZM797.857 49.3506C797.857 50.7979 797.526 51.9639 796.864 52.8486C796.202 53.7334 795.306 54.1758 794.175 54.1758C793.021 54.1758 792.112 53.8096 791.45 53.0771V57.6562H789.824V44.4902H791.31L791.389 45.5449C792.051 44.7246 792.971 44.3145 794.148 44.3145C795.291 44.3145 796.193 44.7451 796.855 45.6064C797.523 46.4678 797.857 47.666 797.857 49.2012V49.3506ZM796.231 49.166C796.231 48.0938 796.003 47.2471 795.546 46.626C795.089 46.0049 794.462 45.6943 793.665 45.6943C792.681 45.6943 791.942 46.1309 791.45 47.0039V51.5479C791.937 52.415 792.681 52.8486 793.683 52.8486C794.462 52.8486 795.08 52.541 795.537 51.9258C796 51.3047 796.231 50.3848 796.231 49.166ZM806.084 44.4902H807.71V54H806.084V47.0654L801.698 54H800.072V44.4902H801.698V51.4336L806.084 44.4902ZM813.282 49.9482H812.096V54H810.461V44.4902H812.096V48.5156H813.159L816.358 44.4902H818.327L814.565 49.0605L818.644 54H816.578L813.282 49.9482ZM829.683 54H828.048V43.1631L824.77 44.3672V42.8906L829.428 41.1416H829.683V54ZM846.259 54H844.624V50.5547C843.909 50.7422 843.177 50.8359 842.427 50.8359C841.237 50.8359 840.329 50.5312 839.702 49.9219C839.081 49.3125 838.765 48.4453 838.753 47.3203V44.4814H840.379V47.373C840.408 48.791 841.091 49.5 842.427 49.5C843.177 49.5 843.909 49.4062 844.624 49.2188V44.4902H846.259V54ZM852.815 54.1758C851.526 54.1758 850.478 53.7539 849.669 52.9102C848.86 52.0605 848.456 50.9268 848.456 49.5088V49.21C848.456 48.2666 848.635 47.4258 848.992 46.6875C849.355 45.9434 849.859 45.3633 850.504 44.9473C851.154 44.5254 851.857 44.3145 852.613 44.3145C853.85 44.3145 854.811 44.7217 855.496 45.5361C856.182 46.3506 856.524 47.5166 856.524 49.0342V49.7109H850.082C850.105 50.6484 850.378 51.4072 850.899 51.9873C851.427 52.5615 852.095 52.8486 852.903 52.8486C853.478 52.8486 853.964 52.7314 854.362 52.4971C854.761 52.2627 855.109 51.9521 855.408 51.5654L856.401 52.3389C855.604 53.5635 854.409 54.1758 852.815 54.1758ZM852.613 45.6504C851.957 45.6504 851.406 45.8906 850.961 46.3711C850.516 46.8457 850.24 47.5137 850.135 48.375H854.898V48.252C854.852 47.4258 854.629 46.7871 854.23 46.3359C853.832 45.8789 853.293 45.6504 852.613 45.6504ZM866.21 44.4902V54H864.575V45.835H861.341L861.147 49.3945C861.042 51.0293 860.767 52.1982 860.321 52.9014C859.882 53.6045 859.182 53.9707 858.221 54H857.57V52.5674L858.036 52.5322C858.563 52.4736 858.941 52.1689 859.17 51.6182C859.398 51.0674 859.545 50.0479 859.609 48.5596L859.785 44.4902H866.21ZM868.39 49.1572C868.39 48.2256 868.571 47.3877 868.935 46.6436C869.304 45.8994 869.813 45.3252 870.464 44.9209C871.12 44.5166 871.867 44.3145 872.705 44.3145C874 44.3145 875.046 44.7627 875.843 45.6592C876.646 46.5557 877.047 47.748 877.047 49.2363V49.3506C877.047 50.2764 876.868 51.1084 876.511 51.8467C876.159 52.5791 875.652 53.1504 874.99 53.5605C874.334 53.9707 873.578 54.1758 872.723 54.1758C871.434 54.1758 870.388 53.7275 869.585 52.8311C868.788 51.9346 868.39 50.748 868.39 49.2715V49.1572ZM870.024 49.3506C870.024 50.4053 870.268 51.252 870.754 51.8906C871.246 52.5293 871.902 52.8486 872.723 52.8486C873.549 52.8486 874.205 52.5264 874.691 51.8818C875.178 51.2314 875.421 50.3232 875.421 49.1572C875.421 48.1143 875.172 47.2705 874.674 46.626C874.182 45.9756 873.525 45.6504 872.705 45.6504C871.902 45.6504 871.255 45.9697 870.763 46.6084C870.271 47.2471 870.024 48.1611 870.024 49.3506ZM879.235 54V44.4902H882.944C884.21 44.4902 885.18 44.7129 885.854 45.1582C886.533 45.5977 886.873 46.2451 886.873 47.1006C886.873 47.54 886.741 47.9385 886.478 48.2959C886.214 48.6475 885.824 48.917 885.309 49.1045C885.883 49.2393 886.343 49.5029 886.688 49.8955C887.04 50.2881 887.216 50.7568 887.216 51.3018C887.216 52.1748 886.894 52.8428 886.249 53.3057C885.61 53.7686 884.705 54 883.533 54H879.235ZM880.861 49.8252V52.6904H883.551C884.23 52.6904 884.737 52.5645 885.071 52.3125C885.411 52.0605 885.581 51.7061 885.581 51.249C885.581 50.2998 884.884 49.8252 883.489 49.8252H880.861ZM880.861 48.5244H882.962C884.485 48.5244 885.247 48.0791 885.247 47.1885C885.247 46.2979 884.526 45.8379 883.085 45.8086H880.861V48.5244ZM893.315 54.1758C892.026 54.1758 890.978 53.7539 890.169 52.9102C889.36 52.0605 888.956 50.9268 888.956 49.5088V49.21C888.956 48.2666 889.135 47.4258 889.492 46.6875C889.855 45.9434 890.359 45.3633 891.004 44.9473C891.654 44.5254 892.357 44.3145 893.113 44.3145C894.35 44.3145 895.311 44.7217 895.996 45.5361C896.682 46.3506 897.024 47.5166 897.024 49.0342V49.7109H890.582C890.605 50.6484 890.878 51.4072 891.399 51.9873C891.927 52.5615 892.595 52.8486 893.403 52.8486C893.978 52.8486 894.464 52.7314 894.862 52.4971C895.261 52.2627 895.609 51.9521 895.908 51.5654L896.901 52.3389C896.104 53.5635 894.909 54.1758 893.315 54.1758ZM893.113 45.6504C892.457 45.6504 891.906 45.8906 891.461 46.3711C891.016 46.8457 890.74 47.5137 890.635 48.375H895.398V48.252C895.352 47.4258 895.129 46.7871 894.73 46.3359C894.332 45.8789 893.793 45.6504 893.113 45.6504ZM901.876 49.9482H900.689V54H899.055V44.4902H900.689V48.5156H901.753L904.952 44.4902H906.921L903.159 49.0605L907.237 54H905.172L901.876 49.9482Z" fill="black"/>
<rect x="345" y="249" width="10" height="10" fill="#188D40"/>
<rect x="345" y="249" width="10" height="10" fill="#D6BD2C"/>
<rect x="345" y="249" width="10" height="10" fill="url(#paint48_radial)"/>
<rect x="591" y="303" width="10" height="10" fill="#188D40"/>
<rect x="591" y="303" width="10" height="10" fill="#D6BD2C"/>
<rect x="591" y="303" width="10" height="10" fill="url(#paint49_radial)"/>
<rect x="528" y="175" width="10" height="10" fill="#188D40"/>
<rect x="528" y="175" width="10" height="10" fill="#D6BD2C"/>
<rect x="528" y="175" width="10" height="10" fill="url(#paint50_radial)"/>
<rect x="528" y="164" width="10" height="10" fill="#188D40"/>
<rect x="528" y="164" width="10" height="10" fill="#D6BD2C"/>
<rect x="528" y="164" width="10" height="10" fill="url(#paint51_radial)"/>
<rect x="528" y="153" width="10" height="10" fill="#188D40"/>
<rect x="528" y="153" width="10" height="10" fill="#D6BD2C"/>
<rect x="528" y="153" width="10" height="10" fill="url(#paint52_radial)"/>
<rect x="528" y="142" width="10" height="10" fill="#188D40"/>
<rect x="528" y="142" width="10" height="10" fill="#D6BD2C"/>
<rect x="528" y="142" width="10" height="10" fill="url(#paint53_radial)"/>
<rect x="465" y="128" width="10" height="10" fill="#188D40"/>
<rect x="465" y="128" width="10" height="10" fill="#D6BD2C"/>
<rect x="465" y="128" width="10" height="10" fill="url(#paint54_radial)"/>
<rect x="766" y="216" width="10" height="10" fill="#188D40"/>
<rect x="766" y="216" width="10" height="10" fill="#BC0EA0"/>
<rect x="766" y="216" width="10" height="10" fill="url(#paint55_radial)"/>
<rect x="528" y="128" width="10" height="10" fill="#188D40"/>
<rect x="528" y="128" width="10" height="10" fill="#D6BD2C"/>
<rect x="528" y="128" width="10" height="10" fill="url(#paint56_radial)"/>
<rect x="541" y="128" width="10" height="10" fill="#188D40"/>
<rect x="541" y="128" width="10" height="10" fill="#D6BD2C"/>
<rect x="541" y="128" width="10" height="10" fill="url(#paint57_radial)"/>
<rect x="755" y="128" width="10" height="10" fill="#188D40"/>
<rect x="755" y="128" width="10" height="10" fill="#D6BD2C"/>
<rect x="755" y="128" width="10" height="10" fill="url(#paint58_radial)"/>
<rect x="919" y="176" width="10" height="10" fill="#188D40"/>
<rect x="919" y="176" width="10" height="10" fill="#D6BD2C"/>
<rect x="919" y="176" width="10" height="10" fill="url(#paint59_radial)"/>
<rect x="1025" y="376" width="10" height="10" fill="#188D40"/>
<rect x="1025" y="376" width="10" height="10" fill="#D6BD2C"/>
<rect x="1025" y="376" width="10" height="10" fill="url(#paint60_radial)"/>
<rect x="1037" y="352" width="10" height="10" fill="#188D40"/>
<rect x="1037" y="352" width="10" height="10" fill="#D6BD2C"/>
<rect x="1037" y="352" width="10" height="10" fill="url(#paint61_radial)"/>
<rect x="935" y="371" width="10" height="10" fill="#188D40"/>
<rect x="935" y="371" width="10" height="10" fill="#D6BD2C"/>
<rect x="935" y="371" width="10" height="10" fill="url(#paint62_radial)"/>
<rect x="919" y="191" width="10" height="10" fill="#188D40"/>
<rect x="919" y="191" width="10" height="10" fill="#D6BD2C"/>
<rect x="919" y="191" width="10" height="10" fill="url(#paint63_radial)"/>
<rect x="919" y="209" width="10" height="10" fill="#188D40"/>
<rect x="919" y="209" width="10" height="10" fill="#D6BD2C"/>
<rect x="919" y="209" width="10" height="10" fill="url(#paint64_radial)"/>
<rect x="919" y="224" width="10" height="10" fill="#188D40"/>
<rect x="919" y="224" width="10" height="10" fill="#D6BD2C"/>
<rect x="919" y="224" width="10" height="10" fill="url(#paint65_radial)"/>
<rect x="919" y="237" width="10" height="10" fill="#188D40"/>
<rect x="919" y="237" width="10" height="10" fill="#D6BD2C"/>
<rect x="919" y="237" width="10" height="10" fill="url(#paint66_radial)"/>
<rect x="127" y="159" width="10" height="10" fill="#188D40"/>
<rect x="127" y="159" width="10" height="10" fill="#D6BD2C"/>
<rect x="127" y="159" width="10" height="10" fill="url(#paint67_radial)"/>
<rect x="137" y="150" width="10" height="10" fill="#188D40"/>
<rect x="137" y="150" width="10" height="10" fill="#D6BD2C"/>
<rect x="137" y="150" width="10" height="10" fill="url(#paint68_radial)"/>
<rect x="147" y="162" width="10" height="10" fill="#188D40"/>
<rect x="147" y="162" width="10" height="10" fill="#D6BD2C"/>
<rect x="147" y="162" width="10" height="10" fill="url(#paint69_radial)"/>
<path d="M416.785 231.688H414.77V239H411.816V221.938H414.77V229.109H416.398L421.414 221.938H425.047L419.188 230.105L425.562 239H422L416.785 231.688ZM426.066 232.543C426.066 231.301 426.312 230.184 426.805 229.191C427.297 228.191 427.988 227.426 428.879 226.895C429.77 226.355 430.793 226.086 431.949 226.086C433.66 226.086 435.047 226.637 436.109 227.738C437.18 228.84 437.758 230.301 437.844 232.121L437.855 232.789C437.855 234.039 437.613 235.156 437.129 236.141C436.652 237.125 435.965 237.887 435.066 238.426C434.176 238.965 433.145 239.234 431.973 239.234C430.184 239.234 428.75 238.641 427.672 237.453C426.602 236.258 426.066 234.668 426.066 232.684V232.543ZM428.914 232.789C428.914 234.094 429.184 235.117 429.723 235.859C430.262 236.594 431.012 236.961 431.973 236.961C432.934 236.961 433.68 236.586 434.211 235.836C434.75 235.086 435.02 233.988 435.02 232.543C435.02 231.262 434.742 230.246 434.188 229.496C433.641 228.746 432.895 228.371 431.949 228.371C431.02 228.371 430.281 228.742 429.734 229.484C429.188 230.219 428.914 231.32 428.914 232.789ZM451.367 232.789C451.367 234.75 450.922 236.316 450.031 237.488C449.141 238.652 447.945 239.234 446.445 239.234C445.055 239.234 443.941 238.777 443.105 237.863V243.875H440.258V226.32H442.883L443 227.609C443.836 226.594 444.973 226.086 446.41 226.086C447.957 226.086 449.168 226.664 450.043 227.82C450.926 228.969 451.367 230.566 451.367 232.613V232.789ZM448.531 232.543C448.531 231.277 448.277 230.273 447.77 229.531C447.27 228.789 446.551 228.418 445.613 228.418C444.449 228.418 443.613 228.898 443.105 229.859V235.484C443.621 236.469 444.465 236.961 445.637 236.961C446.543 236.961 447.25 236.598 447.758 235.871C448.273 235.137 448.531 234.027 448.531 232.543ZM464.539 239H461.691V228.617H456.746V239H453.898V226.32H464.539V239ZM472.004 234.922L474.582 226.32H477.617L472.578 240.922C471.805 243.055 470.492 244.121 468.641 244.121C468.227 244.121 467.77 244.051 467.27 243.91V241.707L467.809 241.742C468.527 241.742 469.066 241.609 469.426 241.344C469.793 241.086 470.082 240.648 470.293 240.031L470.703 238.941L466.25 226.32H469.32L472.004 234.922ZM484.309 236.961C485.02 236.961 485.609 236.754 486.078 236.34C486.547 235.926 486.797 235.414 486.828 234.805H489.512C489.48 235.594 489.234 236.332 488.773 237.02C488.312 237.699 487.688 238.238 486.898 238.637C486.109 239.035 485.258 239.234 484.344 239.234C482.57 239.234 481.164 238.66 480.125 237.512C479.086 236.363 478.566 234.777 478.566 232.754V232.461C478.566 230.531 479.082 228.988 480.113 227.832C481.145 226.668 482.551 226.086 484.332 226.086C485.84 226.086 487.066 226.527 488.012 227.41C488.965 228.285 489.465 229.438 489.512 230.867H486.828C486.797 230.141 486.547 229.543 486.078 229.074C485.617 228.605 485.027 228.371 484.309 228.371C483.387 228.371 482.676 228.707 482.176 229.379C481.676 230.043 481.422 231.055 481.414 232.414V232.871C481.414 234.246 481.66 235.273 482.152 235.953C482.652 236.625 483.371 236.961 484.309 236.961ZM508.695 224.328H500.832V228.465H504.324C505.574 228.465 506.664 228.68 507.594 229.109C508.523 229.539 509.23 230.148 509.715 230.938C510.199 231.727 510.441 232.641 510.441 233.68C510.441 235.273 509.898 236.555 508.812 237.523C507.734 238.492 506.262 238.984 504.395 239H497.867V221.938H508.695V224.328ZM500.832 230.844V236.633H504.312C505.312 236.633 506.09 236.363 506.645 235.824C507.207 235.277 507.488 234.555 507.488 233.656C507.488 232.797 507.215 232.117 506.668 231.617C506.121 231.117 505.363 230.859 504.395 230.844H500.832Z" fill="white"/>
<path d="M594.785 232.688H592.77V240H589.816V222.938H592.77V230.109H594.398L599.414 222.938H603.047L597.188 231.105L603.562 240H600L594.785 232.688ZM604.066 233.543C604.066 232.301 604.312 231.184 604.805 230.191C605.297 229.191 605.988 228.426 606.879 227.895C607.77 227.355 608.793 227.086 609.949 227.086C611.66 227.086 613.047 227.637 614.109 228.738C615.18 229.84 615.758 231.301 615.844 233.121L615.855 233.789C615.855 235.039 615.613 236.156 615.129 237.141C614.652 238.125 613.965 238.887 613.066 239.426C612.176 239.965 611.145 240.234 609.973 240.234C608.184 240.234 606.75 239.641 605.672 238.453C604.602 237.258 604.066 235.668 604.066 233.684V233.543ZM606.914 233.789C606.914 235.094 607.184 236.117 607.723 236.859C608.262 237.594 609.012 237.961 609.973 237.961C610.934 237.961 611.68 237.586 612.211 236.836C612.75 236.086 613.02 234.988 613.02 233.543C613.02 232.262 612.742 231.246 612.188 230.496C611.641 229.746 610.895 229.371 609.949 229.371C609.02 229.371 608.281 229.742 607.734 230.484C607.188 231.219 606.914 232.32 606.914 233.789ZM629.367 233.789C629.367 235.75 628.922 237.316 628.031 238.488C627.141 239.652 625.945 240.234 624.445 240.234C623.055 240.234 621.941 239.777 621.105 238.863V244.875H618.258V227.32H620.883L621 228.609C621.836 227.594 622.973 227.086 624.41 227.086C625.957 227.086 627.168 227.664 628.043 228.82C628.926 229.969 629.367 231.566 629.367 233.613V233.789ZM626.531 233.543C626.531 232.277 626.277 231.273 625.77 230.531C625.27 229.789 624.551 229.418 623.613 229.418C622.449 229.418 621.613 229.898 621.105 230.859V236.484C621.621 237.469 622.465 237.961 623.637 237.961C624.543 237.961 625.25 237.598 625.758 236.871C626.273 236.137 626.531 235.027 626.531 233.543ZM642.539 240H639.691V229.617H634.746V240H631.898V227.32H642.539V240ZM650.004 235.922L652.582 227.32H655.617L650.578 241.922C649.805 244.055 648.492 245.121 646.641 245.121C646.227 245.121 645.77 245.051 645.27 244.91V242.707L645.809 242.742C646.527 242.742 647.066 242.609 647.426 242.344C647.793 242.086 648.082 241.648 648.293 241.031L648.703 239.941L644.25 227.32H647.32L650.004 235.922ZM662.309 237.961C663.02 237.961 663.609 237.754 664.078 237.34C664.547 236.926 664.797 236.414 664.828 235.805H667.512C667.48 236.594 667.234 237.332 666.773 238.02C666.312 238.699 665.688 239.238 664.898 239.637C664.109 240.035 663.258 240.234 662.344 240.234C660.57 240.234 659.164 239.66 658.125 238.512C657.086 237.363 656.566 235.777 656.566 233.754V233.461C656.566 231.531 657.082 229.988 658.113 228.832C659.145 227.668 660.551 227.086 662.332 227.086C663.84 227.086 665.066 227.527 666.012 228.41C666.965 229.285 667.465 230.438 667.512 231.867H664.828C664.797 231.141 664.547 230.543 664.078 230.074C663.617 229.605 663.027 229.371 662.309 229.371C661.387 229.371 660.676 229.707 660.176 230.379C659.676 231.043 659.422 232.055 659.414 233.414V233.871C659.414 235.246 659.66 236.273 660.152 236.953C660.652 237.625 661.371 237.961 662.309 237.961ZM688.934 234.445C688.762 236.266 688.09 237.688 686.918 238.711C685.746 239.727 684.188 240.234 682.242 240.234C680.883 240.234 679.684 239.914 678.645 239.273C677.613 238.625 676.816 237.707 676.254 236.52C675.691 235.332 675.398 233.953 675.375 232.383V230.789C675.375 229.18 675.66 227.762 676.23 226.535C676.801 225.309 677.617 224.363 678.68 223.699C679.75 223.035 680.984 222.703 682.383 222.703C684.266 222.703 685.781 223.215 686.93 224.238C688.078 225.262 688.746 226.707 688.934 228.574H685.98C685.84 227.348 685.48 226.465 684.902 225.926C684.332 225.379 683.492 225.105 682.383 225.105C681.094 225.105 680.102 225.578 679.406 226.523C678.719 227.461 678.367 228.84 678.352 230.66V232.172C678.352 234.016 678.68 235.422 679.336 236.391C680 237.359 680.969 237.844 682.242 237.844C683.406 237.844 684.281 237.582 684.867 237.059C685.453 236.535 685.824 235.664 685.98 234.445H688.934Z" fill="white"/>
<defs>
<radialGradient id="paint0_radial" cx="0" cy="0" r="1" gradientUnits="userSpaceOnUse" gradientTransform="translate(186 168.309) rotate(58.2405) scale(24.6982 303.884)">
<stop stop-color="white" stop-opacity="0.25"/>
<stop offset="1" stop-color="white" stop-opacity="0.05"/>
</radialGradient>
<radialGradient id="paint1_radial" cx="0" cy="0" r="1" gradientUnits="userSpaceOnUse" gradientTransform="translate(786.5 307.147) rotate(31.2184) scale(19.2938 235.113)">
<stop stop-color="white" stop-opacity="0.25"/>
<stop offset="1" stop-color="white" stop-opacity="0.05"/>
</radialGradient>
<radialGradient id="paint2_radial" cx="0" cy="0" r="1" gradientUnits="userSpaceOnUse" gradientTransform="translate(786.5 307.147) rotate(31.2184) scale(19.2938 235.113)">
<stop stop-color="white" stop-opacity="0.25"/>
<stop offset="1" stop-color="white" stop-opacity="0.05"/>
</radialGradient>
<radialGradient id="paint3_radial" cx="0" cy="0" r="1" gradientUnits="userSpaceOnUse" gradientTransform="translate(993 152.147) rotate(45) scale(14.1421 194.399)">
<stop stop-color="white" stop-opacity="0.25"/>
<stop offset="1" stop-color="white" stop-opacity="0.05"/>
</radialGradient>
<radialGradient id="paint4_radial" cx="0" cy="0" r="1" gradientUnits="userSpaceOnUse" gradientTransform="translate(717 166.213) rotate(62.6501) scale(16.3248 183.143)">
<stop stop-color="white" stop-opacity="0.25"/>
<stop offset="1" stop-color="white" stop-opacity="0.05"/>
</radialGradient>
<radialGradient id="paint5_radial" cx="0" cy="0" r="1" gradientUnits="userSpaceOnUse" gradientTransform="translate(780 198.331) rotate(49.8208) scale(29.4491 399.093)">
<stop stop-color="white" stop-opacity="0.25"/>
<stop offset="1" stop-color="white" stop-opacity="0.05"/>
</radialGradient>
<radialGradient id="paint6_radial" cx="0" cy="0" r="1" gradientUnits="userSpaceOnUse" gradientTransform="translate(816 264.5) rotate(10.9338) scale(179.254 917.767)">
<stop stop-color="white" stop-opacity="0.25"/>
<stop offset="1" stop-color="white" stop-opacity="0.05"/>
</radialGradient>
<radialGradient id="paint7_radial" cx="0" cy="0" r="1" gradientUnits="userSpaceOnUse" gradientTransform="translate(375 196.566) rotate(23.6566) scale(180.683 1825.69)">
<stop stop-color="white" stop-opacity="0.25"/>
<stop offset="1" stop-color="white" stop-opacity="0.05"/>
</radialGradient>
<radialGradient id="paint8_radial" cx="0" cy="0" r="1" gradientUnits="userSpaceOnUse" gradientTransform="translate(561 198.566) rotate(24.0442) scale(177.94 1820.24)">
<stop stop-color="white" stop-opacity="0.25"/>
<stop offset="1" stop-color="white" stop-opacity="0.05"/>
</radialGradient>
<radialGradient id="paint9_radial" cx="0" cy="0" r="1" gradientUnits="userSpaceOnUse" gradientTransform="translate(232.5 164.626) rotate(43.7455) scale(15.2266 209.106)">
<stop stop-color="white" stop-opacity="0.25"/>
<stop offset="1" stop-color="white" stop-opacity="0.05"/>
</radialGradient>
<radialGradient id="paint10_radial" cx="0" cy="0" r="1" gradientUnits="userSpaceOnUse" gradientTransform="translate(278.92 147.115) rotate(85.5889) scale(15.2266 209.106)">
<stop stop-color="white" stop-opacity="0.25"/>
<stop offset="1" stop-color="white" stop-opacity="0.05"/>
</radialGradient>
<radialGradient id="paint11_radial" cx="0" cy="0" r="1" gradientUnits="userSpaceOnUse" gradientTransform="translate(203.5 229.721) rotate(45) scale(21.2132 291.599)">
<stop stop-color="white" stop-opacity="0.25"/>
<stop offset="1" stop-color="white" stop-opacity="0.05"/>
</radialGradient>
<radialGradient id="paint12_radial" cx="0" cy="0" r="1" gradientUnits="userSpaceOnUse" gradientTransform="translate(138.5 229.765) rotate(47.4896) scale(24.4182 334.389)">
<stop stop-color="white" stop-opacity="0.25"/>
<stop offset="1" stop-color="white" stop-opacity="0.05"/>
</radialGradient>
<radialGradient id="paint13_radial" cx="0" cy="0" r="1" gradientUnits="userSpaceOnUse" gradientTransform="translate(186 246.426) rotate(46.5208) scale(39.9656 548.598)">
<stop stop-color="white" stop-opacity="0.25"/>
<stop offset="1" stop-color="white" stop-opacity="0.05"/>
</radialGradient>
<radialGradient id="paint14_radial" cx="0" cy="0" r="1" gradientUnits="userSpaceOnUse" gradientTransform="translate(1.5 306.096) rotate(24.9048) scale(15.4353 162.082)">
<stop stop-color="white" stop-opacity="0.25"/>
<stop offset="1" stop-color="white" stop-opacity="0.05"/>
</radialGradient>
<radialGradient id="paint15_radial" cx="0" cy="0" r="1" gradientUnits="userSpaceOnUse" gradientTransform="translate(28.5 338.449) rotate(56.7456) scale(36.4726 459.804)">
<stop stop-color="white" stop-opacity="0.25"/>
<stop offset="1" stop-color="white" stop-opacity="0.05"/>
</radialGradient>
<radialGradient id="paint16_radial" cx="0" cy="0" r="1" gradientUnits="userSpaceOnUse" gradientTransform="translate(171 270.912) rotate(30.7841) scale(54.7083 661.321)">
<stop stop-color="white" stop-opacity="0.25"/>
<stop offset="1" stop-color="white" stop-opacity="0.05"/>
</radialGradient>
<radialGradient id="paint17_radial" cx="0" cy="0" r="1" gradientUnits="userSpaceOnUse" gradientTransform="translate(1024.5 329.559) rotate(11.3099) scale(20.3961 107.833)">
<stop stop-color="white" stop-opacity="0.25"/>
<stop offset="1" stop-color="white" stop-opacity="0.05"/>
</radialGradient>
<radialGradient id="paint18_radial" cx="0" cy="0" r="1" gradientUnits="userSpaceOnUse" gradientTransform="translate(1049.5 380.618) rotate(38.6598) scale(12.8062 171.743)">
<stop stop-color="white" stop-opacity="0.25"/>
<stop offset="1" stop-color="white" stop-opacity="0.05"/>
</radialGradient>
<radialGradient id="paint19_radial" cx="0" cy="0" r="1" gradientUnits="userSpaceOnUse" gradientTransform="translate(76 317.147) rotate(45) scale(14.1421 194.399)">
<stop stop-color="white" stop-opacity="0.25"/>
<stop offset="1" stop-color="white" stop-opacity="0.05"/>
</radialGradient>
<radialGradient id="paint20_radial" cx="0" cy="0" r="1" gradientUnits="userSpaceOnUse" gradientTransform="translate(39 8.14705) rotate(45) scale(14.1421 194.399)">
<stop stop-color="white" stop-opacity="0.25"/>
<stop offset="1" stop-color="white" stop-opacity="0.05"/>
</radialGradient>
<radialGradient id="paint21_radial" cx="0" cy="0" r="1" gradientUnits="userSpaceOnUse" gradientTransform="translate(176 184.147) rotate(45) scale(14.1421 194.399)">
<stop stop-color="white" stop-opacity="0.25"/>
<stop offset="1" stop-color="white" stop-opacity="0.05"/>
</radialGradient>
<radialGradient id="paint22_radial" cx="0" cy="0" r="1" gradientUnits="userSpaceOnUse" gradientTransform="translate(296 120.147) rotate(45) scale(14.1421 194.399)">
<stop stop-color="white" stop-opacity="0.25"/>
<stop offset="1" stop-color="white" stop-opacity="0.05"/>
</radialGradient>
<radialGradient id="paint23_radial" cx="0" cy="0" r="1" gradientUnits="userSpaceOnUse" gradientTransform="translate(556 128.147) rotate(45) scale(14.1421 194.399)">
<stop stop-color="white" stop-opacity="0.25"/>
<stop offset="1" stop-color="white" stop-opacity="0.05"/>
</radialGradient>
<radialGradient id="paint24_radial" cx="0" cy="0" r="1" gradientUnits="userSpaceOnUse" gradientTransform="translate(909 128.147) rotate(45) scale(14.1421 194.399)">
<stop stop-color="white" stop-opacity="0.25"/>
<stop offset="1" stop-color="white" stop-opacity="0.05"/>
</radialGradient>
<radialGradient id="paint25_radial" cx="0" cy="0" r="1" gradientUnits="userSpaceOnUse" gradientTransform="translate(1013 201.147) rotate(45) scale(14.1421 194.399)">
<stop stop-color="white" stop-opacity="0.25"/>
<stop offset="1" stop-color="white" stop-opacity="0.05"/>
</radialGradient>
<radialGradient id="paint26_radial" cx="0" cy="0" r="1" gradientUnits="userSpaceOnUse" gradientTransform="translate(994 371.147) rotate(45) scale(14.1421 194.399)">
<stop stop-color="white" stop-opacity="0.25"/>
<stop offset="1" stop-color="white" stop-opacity="0.05"/>
</radialGradient>
<radialGradient id="paint27_radial" cx="0" cy="0" r="1" gradientUnits="userSpaceOnUse" gradientTransform="translate(1056 375.147) rotate(45) scale(14.1421 194.399)">
<stop stop-color="white" stop-opacity="0.25"/>
<stop offset="1" stop-color="white" stop-opacity="0.05"/>
</radialGradient>
<radialGradient id="paint28_radial" cx="0" cy="0" r="1" gradientUnits="userSpaceOnUse" gradientTransform="translate(377 296.147) rotate(45) scale(14.1421 194.399)">
<stop stop-color="white" stop-opacity="0.25"/>
<stop offset="1" stop-color="white" stop-opacity="0.05"/>
</radialGradient>
<radialGradient id="paint29_radial" cx="0" cy="0" r="1" gradientUnits="userSpaceOnUse" gradientTransform="translate(85 13.1471) rotate(45) scale(14.1421 194.399)">
<stop stop-color="white" stop-opacity="0.25"/>
<stop offset="1" stop-color="white" stop-opacity="0.05"/>
</radialGradient>
<radialGradient id="paint30_radial" cx="0" cy="0" r="1" gradientUnits="userSpaceOnUse" gradientTransform="translate(44 101.147) rotate(45) scale(14.1421 194.399)">
<stop stop-color="white" stop-opacity="0.25"/>
<stop offset="1" stop-color="white" stop-opacity="0.05"/>
</radialGradient>
<radialGradient id="paint31_radial" cx="0" cy="0" r="1" gradientUnits="userSpaceOnUse" gradientTransform="translate(90 91.1471) rotate(45) scale(14.1421 194.399)">
<stop stop-color="white" stop-opacity="0.25"/>
<stop offset="1" stop-color="white" stop-opacity="0.05"/>
</radialGradient>
<radialGradient id="paint32_radial" cx="0" cy="0" r="1" gradientUnits="userSpaceOnUse" gradientTransform="translate(106 49.1471) rotate(45) scale(14.1421 194.399)">
<stop stop-color="white" stop-opacity="0.25"/>
<stop offset="1" stop-color="white" stop-opacity="0.05"/>
</radialGradient>
<radialGradient id="paint33_radial" cx="0" cy="0" r="1" gradientUnits="userSpaceOnUse" gradientTransform="translate(137 70.1471) rotate(45) scale(14.1421 194.399)">
<stop stop-color="white" stop-opacity="0.25"/>
<stop offset="1" stop-color="white" stop-opacity="0.05"/>
</radialGradient>
<radialGradient id="paint34_radial" cx="0" cy="0" r="1" gradientUnits="userSpaceOnUse" gradientTransform="translate(106 120.147) rotate(45) scale(14.1421 194.399)">
<stop stop-color="white" stop-opacity="0.25"/>
<stop offset="1" stop-color="white" stop-opacity="0.05"/>
</radialGradient>
<radialGradient id="paint35_radial" cx="0" cy="0" r="1" gradientUnits="userSpaceOnUse" gradientTransform="translate(116 137.147) rotate(45) scale(14.1421 194.399)">
<stop stop-color="white" stop-opacity="0.25"/>
<stop offset="1" stop-color="white" stop-opacity="0.05"/>
</radialGradient>
<radialGradient id="paint36_radial" cx="0" cy="0" r="1" gradientUnits="userSpaceOnUse" gradientTransform="translate(150 91.1471) rotate(45) scale(14.1421 194.399)">
<stop stop-color="white" stop-opacity="0.25"/>
<stop offset="1" stop-color="white" stop-opacity="0.05"/>
</radialGradient>
<radialGradient id="paint37_radial" cx="0" cy="0" r="1" gradientUnits="userSpaceOnUse" gradientTransform="translate(166 115.147) rotate(45) scale(14.1421 194.399)">
<stop stop-color="white" stop-opacity="0.25"/>
<stop offset="1" stop-color="white" stop-opacity="0.05"/>
</radialGradient>
<radialGradient id="paint38_radial" cx="0" cy="0" r="1" gradientUnits="userSpaceOnUse" gradientTransform="translate(190 152.147) rotate(45) scale(14.1421 194.399)">
<stop stop-color="white" stop-opacity="0.25"/>
<stop offset="1" stop-color="white" stop-opacity="0.05"/>
</radialGradient>
<radialGradient id="paint39_radial" cx="0" cy="0" r="1" gradientUnits="userSpaceOnUse" gradientTransform="translate(320 154.147) rotate(45) scale(14.1421 194.399)">
<stop stop-color="white" stop-opacity="0.25"/>
<stop offset="1" stop-color="white" stop-opacity="0.05"/>
</radialGradient>
<radialGradient id="paint40_radial" cx="0" cy="0" r="1" gradientUnits="userSpaceOnUse" gradientTransform="translate(319 173.147) rotate(45) scale(14.1421 194.399)">
<stop stop-color="white" stop-opacity="0.25"/>
<stop offset="1" stop-color="white" stop-opacity="0.05"/>
</radialGradient>
<radialGradient id="paint41_radial" cx="0" cy="0" r="1" gradientUnits="userSpaceOnUse" gradientTransform="translate(319 211.147) rotate(45) scale(14.1421 194.399)">
<stop stop-color="white" stop-opacity="0.25"/>
<stop offset="1" stop-color="white" stop-opacity="0.05"/>
</radialGradient>
<radialGradient id="paint42_radial" cx="0" cy="0" r="1" gradientUnits="userSpaceOnUse" gradientTransform="translate(319 230.147) rotate(45) scale(14.1421 194.399)">
<stop stop-color="white" stop-opacity="0.25"/>
<stop offset="1" stop-color="white" stop-opacity="0.05"/>
</radialGradient>
<radialGradient id="paint43_radial" cx="0" cy="0" r="1" gradientUnits="userSpaceOnUse" gradientTransform="translate(319 249.147) rotate(45) scale(14.1421 194.399)">
<stop stop-color="white" stop-opacity="0.25"/>
<stop offset="1" stop-color="white" stop-opacity="0.05"/>
</radialGradient>
<radialGradient id="paint44_radial" cx="0" cy="0" r="1" gradientUnits="userSpaceOnUse" gradientTransform="translate(395 0.220581) rotate(45) scale(21.2132 291.599)">
<stop stop-color="white" stop-opacity="0.25"/>
<stop offset="1" stop-color="white" stop-opacity="0.05"/>
</radialGradient>
<radialGradient id="paint45_radial" cx="0" cy="0" r="1" gradientUnits="userSpaceOnUse" gradientTransform="translate(395 40.2206) rotate(45) scale(21.2132 291.599)">
<stop stop-color="white" stop-opacity="0.25"/>
<stop offset="1" stop-color="white" stop-opacity="0.05"/>
</radialGradient>
<radialGradient id="paint46_radial" cx="0" cy="0" r="1" gradientUnits="userSpaceOnUse" gradientTransform="translate(615 0.220581) rotate(45) scale(21.2132 291.599)">
<stop stop-color="white" stop-opacity="0.25"/>
<stop offset="1" stop-color="white" stop-opacity="0.05"/>
</radialGradient>
<radialGradient id="paint47_radial" cx="0" cy="0" r="1" gradientUnits="userSpaceOnUse" gradientTransform="translate(615 40.2206) rotate(45) scale(21.2132 291.599)">
<stop stop-color="white" stop-opacity="0.25"/>
<stop offset="1" stop-color="white" stop-opacity="0.05"/>
</radialGradient>
<radialGradient id="paint48_radial" cx="0" cy="0" r="1" gradientUnits="userSpaceOnUse" gradientTransform="translate(345 249.147) rotate(45) scale(14.1421 194.399)">
<stop stop-color="white" stop-opacity="0.25"/>
<stop offset="1" stop-color="white" stop-opacity="0.05"/>
</radialGradient>
<radialGradient id="paint49_radial" cx="0" cy="0" r="1" gradientUnits="userSpaceOnUse" gradientTransform="translate(591 303.147) rotate(45) scale(14.1421 194.399)">
<stop stop-color="white" stop-opacity="0.25"/>
<stop offset="1" stop-color="white" stop-opacity="0.05"/>
</radialGradient>
<radialGradient id="paint50_radial" cx="0" cy="0" r="1" gradientUnits="userSpaceOnUse" gradientTransform="translate(528 175.147) rotate(45) scale(14.1421 194.399)">
<stop stop-color="white" stop-opacity="0.25"/>
<stop offset="1" stop-color="white" stop-opacity="0.05"/>
</radialGradient>
<radialGradient id="paint51_radial" cx="0" cy="0" r="1" gradientUnits="userSpaceOnUse" gradientTransform="translate(528 164.147) rotate(45) scale(14.1421 194.399)">
<stop stop-color="white" stop-opacity="0.25"/>
<stop offset="1" stop-color="white" stop-opacity="0.05"/>
</radialGradient>
<radialGradient id="paint52_radial" cx="0" cy="0" r="1" gradientUnits="userSpaceOnUse" gradientTransform="translate(528 153.147) rotate(45) scale(14.1421 194.399)">
<stop stop-color="white" stop-opacity="0.25"/>
<stop offset="1" stop-color="white" stop-opacity="0.05"/>
</radialGradient>
<radialGradient id="paint53_radial" cx="0" cy="0" r="1" gradientUnits="userSpaceOnUse" gradientTransform="translate(528 142.147) rotate(45) scale(14.1421 194.399)">
<stop stop-color="white" stop-opacity="0.25"/>
<stop offset="1" stop-color="white" stop-opacity="0.05"/>
</radialGradient>
<radialGradient id="paint54_radial" cx="0" cy="0" r="1" gradientUnits="userSpaceOnUse" gradientTransform="translate(465 128.147) rotate(45) scale(14.1421 194.399)">
<stop stop-color="white" stop-opacity="0.25"/>
<stop offset="1" stop-color="white" stop-opacity="0.05"/>
</radialGradient>
<radialGradient id="paint55_radial" cx="0" cy="0" r="1" gradientUnits="userSpaceOnUse" gradientTransform="translate(766 216.147) rotate(45) scale(14.1421 194.399)">
<stop stop-color="white" stop-opacity="0.25"/>
<stop offset="1" stop-color="white" stop-opacity="0.05"/>
</radialGradient>
<radialGradient id="paint56_radial" cx="0" cy="0" r="1" gradientUnits="userSpaceOnUse" gradientTransform="translate(528 128.147) rotate(45) scale(14.1421 194.399)">
<stop stop-color="white" stop-opacity="0.25"/>
<stop offset="1" stop-color="white" stop-opacity="0.05"/>
</radialGradient>
<radialGradient id="paint57_radial" cx="0" cy="0" r="1" gradientUnits="userSpaceOnUse" gradientTransform="translate(541 128.147) rotate(45) scale(14.1421 194.399)">
<stop stop-color="white" stop-opacity="0.25"/>
<stop offset="1" stop-color="white" stop-opacity="0.05"/>
</radialGradient>
<radialGradient id="paint58_radial" cx="0" cy="0" r="1" gradientUnits="userSpaceOnUse" gradientTransform="translate(755 128.147) rotate(45) scale(14.1421 194.399)">
<stop stop-color="white" stop-opacity="0.25"/>
<stop offset="1" stop-color="white" stop-opacity="0.05"/>
</radialGradient>
<radialGradient id="paint59_radial" cx="0" cy="0" r="1" gradientUnits="userSpaceOnUse" gradientTransform="translate(919 176.147) rotate(45) scale(14.1421 194.399)">
<stop stop-color="white" stop-opacity="0.25"/>
<stop offset="1" stop-color="white" stop-opacity="0.05"/>
</radialGradient>
<radialGradient id="paint60_radial" cx="0" cy="0" r="1" gradientUnits="userSpaceOnUse" gradientTransform="translate(1025 376.147) rotate(45) scale(14.1421 194.399)">
<stop stop-color="white" stop-opacity="0.25"/>
<stop offset="1" stop-color="white" stop-opacity="0.05"/>
</radialGradient>
<radialGradient id="paint61_radial" cx="0" cy="0" r="1" gradientUnits="userSpaceOnUse" gradientTransform="translate(1037 352.147) rotate(45) scale(14.1421 194.399)">
<stop stop-color="white" stop-opacity="0.25"/>
<stop offset="1" stop-color="white" stop-opacity="0.05"/>
</radialGradient>
<radialGradient id="paint62_radial" cx="0" cy="0" r="1" gradientUnits="userSpaceOnUse" gradientTransform="translate(935 371.147) rotate(45) scale(14.1421 194.399)">
<stop stop-color="white" stop-opacity="0.25"/>
<stop offset="1" stop-color="white" stop-opacity="0.05"/>
</radialGradient>
<radialGradient id="paint63_radial" cx="0" cy="0" r="1" gradientUnits="userSpaceOnUse" gradientTransform="translate(919 191.147) rotate(45) scale(14.1421 194.399)">
<stop stop-color="white" stop-opacity="0.25"/>
<stop offset="1" stop-color="white" stop-opacity="0.05"/>
</radialGradient>
<radialGradient id="paint64_radial" cx="0" cy="0" r="1" gradientUnits="userSpaceOnUse" gradientTransform="translate(919 209.147) rotate(45) scale(14.1421 194.399)">
<stop stop-color="white" stop-opacity="0.25"/>
<stop offset="1" stop-color="white" stop-opacity="0.05"/>
</radialGradient>
<radialGradient id="paint65_radial" cx="0" cy="0" r="1" gradientUnits="userSpaceOnUse" gradientTransform="translate(919 224.147) rotate(45) scale(14.1421 194.399)">
<stop stop-color="white" stop-opacity="0.25"/>
<stop offset="1" stop-color="white" stop-opacity="0.05"/>
</radialGradient>
<radialGradient id="paint66_radial" cx="0" cy="0" r="1" gradientUnits="userSpaceOnUse" gradientTransform="translate(919 237.147) rotate(45) scale(14.1421 194.399)">
<stop stop-color="white" stop-opacity="0.25"/>
<stop offset="1" stop-color="white" stop-opacity="0.05"/>
</radialGradient>
<radialGradient id="paint67_radial" cx="0" cy="0" r="1" gradientUnits="userSpaceOnUse" gradientTransform="translate(127 159.147) rotate(45) scale(14.1421 194.399)">
<stop stop-color="white" stop-opacity="0.25"/>
<stop offset="1" stop-color="white" stop-opacity="0.05"/>
</radialGradient>
<radialGradient id="paint68_radial" cx="0" cy="0" r="1" gradientUnits="userSpaceOnUse" gradientTransform="translate(137 150.147) rotate(45) scale(14.1421 194.399)">
<stop stop-color="white" stop-opacity="0.25"/>
<stop offset="1" stop-color="white" stop-opacity="0.05"/>
</radialGradient>
<radialGradient id="paint69_radial" cx="0" cy="0" r="1" gradientUnits="userSpaceOnUse" gradientTransform="translate(147 162.147) rotate(45) scale(14.1421 194.399)">
<stop stop-color="white" stop-opacity="0.25"/>
<stop offset="1" stop-color="white" stop-opacity="0.05"/>
</radialGradient>
</defs>
</svg>
