<svg width="1147" height="390" viewBox="0 0 1147 390" fill="none" xmlns="http://www.w3.org/2000/svg">
<line x1="69.4891" y1="11.1808" x2="31.3621" y2="325.164" stroke="#DF192B" stroke-width="3"/>
<line x1="69.511" y1="12.5111" x2="385.756" y2="14.8462" stroke="#DF192B" stroke-width="3" stroke-linecap="round"/>
<line x1="290.114" y1="100.882" x2="385.882" y2="14.8861" stroke="#DF192B" stroke-width="3" stroke-linecap="round"/>
<line x1="1094.16" y1="160.945" x2="1078.95" y2="104.84" stroke="#DF192B" stroke-width="3" stroke-linecap="round"/>
<line x1="1119.32" y1="336.709" x2="1096.71" y2="165.684" stroke="#DF192B" stroke-width="3" stroke-linecap="round"/>
<line x1="865.398" y1="354.404" x2="1119.4" y2="337.602" stroke="#DF192B" stroke-width="3" stroke-linecap="round"/>
<line x1="175.678" y1="329.702" x2="368.702" y2="354.322" stroke="#DF192B" stroke-width="3" stroke-linecap="round"/>
<line x1="31.6019" y1="323.609" x2="112.614" y2="329.328" stroke="#DF192B" stroke-width="3" stroke-linecap="round"/>
<line x1="290.254" y1="103.106" x2="113.106" y2="328.746" stroke="#DF192B" stroke-width="3" stroke-linecap="round"/>
<line x1="358.23" y1="102.109" x2="176.109" y2="328.77" stroke="#DF192B" stroke-width="3" stroke-linecap="round"/>
<line x1="863.5" y1="354.5" x2="371.5" y2="354.5" stroke="#DF192B" stroke-width="3" stroke-linecap="round"/>
<line x1="291.5" y1="101.5" x2="1082.5" y2="101.5" stroke="#DF192B" stroke-width="3" stroke-linecap="round"/>
<path d="M37.4416 273.261C38.7444 273.426 40.0017 273.847 41.142 274.498C42.2822 275.15 43.2829 276.02 44.087 277.058C44.8911 278.096 45.4829 279.282 45.8285 280.549C46.174 281.816 46.2667 283.139 46.1011 284.442C45.9356 285.744 45.515 287.002 44.8636 288.142C44.2121 289.282 43.3424 290.283 42.3041 291.087C41.2659 291.891 40.0794 292.483 38.8125 292.828C37.5455 293.174 36.223 293.267 34.9202 293.101L36.1809 283.181L37.4416 273.261Z" fill="#DF192B"/>
<path d="M37.4416 273.261C34.8106 272.926 32.1546 273.651 30.0577 275.275C27.9609 276.899 26.5951 279.289 26.2607 281.92C25.9263 284.551 26.6508 287.207 28.2748 289.304C29.8988 291.401 32.2892 292.767 34.9202 293.101L36.1809 283.181L37.4416 273.261Z" fill="white"/>
<path d="M11.4258 290H9.21094V278.996H3.57715V290H1.3623V277.203H11.4258V290ZM22.2979 278.996H16.3916V290H14.1768V277.203H22.2979V278.996Z" fill="#DF192B"/>
<path d="M44.1839 217.124C45.4888 217.271 46.7519 217.674 47.901 218.31C49.0501 218.946 50.0627 219.801 50.8811 220.828C51.6995 221.855 52.3075 223.034 52.6706 224.296C53.0336 225.558 53.1445 226.879 52.997 228.184C52.8494 229.489 52.4463 230.752 51.8106 231.901C51.1749 233.05 50.3191 234.063 49.2921 234.881C48.265 235.699 47.0868 236.307 45.8248 236.67C44.5628 237.034 43.2416 237.144 41.9367 236.997L43.0603 227.06L44.1839 217.124Z" fill="#DF192B"/>
<path d="M44.1839 217.124C41.5485 216.826 38.9027 217.587 36.8285 219.239C34.7543 220.892 33.4216 223.301 33.1236 225.937C32.8256 228.572 33.5867 231.218 35.2395 233.292C36.8923 235.366 39.3013 236.699 41.9367 236.997L43.0603 227.06L44.1839 217.124Z" fill="white"/>
<path d="M18.4258 234H16.2109V222.996H10.5771V234H8.3623V221.203H18.4258V234ZM29.2979 222.996H23.3916V234H21.1768V221.203H29.2979V222.996Z" fill="#DF192B"/>
<path d="M64.3801 46.1532C65.6819 46.3257 66.937 46.7529 68.0738 47.4104C69.2105 48.068 70.2066 48.943 71.0052 49.9855C71.8038 51.028 72.3892 52.2176 72.728 53.4863C73.0669 54.7551 73.1525 56.0781 72.98 57.38C72.8075 58.6818 72.3803 59.9369 71.7228 61.0737C71.0652 62.2104 70.1902 63.2065 69.1477 64.0051C68.1052 64.8037 66.9156 65.3891 65.6469 65.7279C64.3781 66.0668 63.0551 66.1524 61.7532 65.9799L63.0666 56.0666L64.3801 46.1532Z" fill="#DF192B"/>
<path d="M64.3801 46.1532C61.7509 45.8048 59.091 46.5152 56.9856 48.128C54.8801 49.7408 53.5016 52.1239 53.1533 54.7531C52.8049 57.3823 53.5153 60.0422 55.1281 62.1476C56.7409 64.2531 59.124 65.6316 61.7532 65.9799L63.0666 56.0666L64.3801 46.1532Z" fill="white"/>
<path d="M36.4258 61H34.2109V49.9961H28.5771V61H26.3623V48.2031H36.4258V61ZM47.2979 49.9961H41.3916V61H39.1768V48.2031H47.2979V49.9961Z" fill="#DF192B"/>
<path d="M279.38 2.15318C280.682 2.32566 281.937 2.75287 283.074 3.41042C284.211 4.06796 285.207 4.94297 286.005 5.98547C286.804 7.02798 287.389 8.21756 287.728 9.48631C288.067 10.7551 288.152 12.0781 287.98 13.38C287.808 14.6818 287.38 15.9369 286.723 17.0737C286.065 18.2104 285.19 19.2065 284.148 20.0051C283.105 20.8037 281.916 21.3891 280.647 21.7279C279.378 22.0668 278.055 22.1524 276.753 21.9799L278.067 12.0666L279.38 2.15318Z" fill="#DF192B"/>
<path d="M279.38 2.15318C276.751 1.80484 274.091 2.51521 271.986 4.12801C269.88 5.74082 268.502 8.12394 268.153 10.7531C267.805 13.3823 268.515 16.0422 270.128 18.1476C271.741 20.2531 274.124 21.6316 276.753 21.9799L278.067 12.0666L279.38 2.15318Z" fill="white"/>
<path d="M251.426 17H249.211V5.99609H243.577V17H241.362V4.20312H251.426V17ZM262.298 5.99609H256.392V17H254.177V4.20312H262.298V5.99609Z" fill="#DF192B"/>
<path d="M381.54 91.3134C382.842 91.4859 384.097 91.9131 385.234 92.5706C386.371 93.2282 387.367 94.1032 388.165 95.1457C388.964 96.1882 389.549 97.3778 389.888 98.6465C390.227 99.9153 390.313 101.238 390.14 102.54C389.968 103.842 389.54 105.097 388.883 106.234C388.225 107.371 387.35 108.367 386.308 109.165C385.265 109.964 384.076 110.549 382.807 110.888C381.538 111.227 380.215 111.313 378.913 111.14L380.227 101.227L381.54 91.3134Z" fill="#DF192B"/>
<path d="M381.54 91.3134C378.911 90.9651 376.251 91.6754 374.146 93.2882C372.04 94.901 370.662 97.2842 370.313 99.9133C369.965 102.543 370.675 105.202 372.288 107.308C373.901 109.413 376.284 110.792 378.913 111.14L380.227 101.227L381.54 91.3134Z" fill="white"/>
<path d="M380.426 85H378.211V73.9961H372.577V85H370.362V72.2031H380.426V85ZM391.298 73.9961H385.392V85H383.177V72.2031H391.298V73.9961Z" fill="#DF192B"/>
<path d="M458.54 91.3134C459.842 91.4859 461.097 91.9131 462.234 92.5706C463.371 93.2282 464.367 94.1032 465.165 95.1457C465.964 96.1882 466.549 97.3778 466.888 98.6465C467.227 99.9153 467.313 101.238 467.14 102.54C466.968 103.842 466.54 105.097 465.883 106.234C465.225 107.371 464.35 108.367 463.308 109.165C462.265 109.964 461.076 110.549 459.807 110.888C458.538 111.227 457.215 111.313 455.913 111.14L457.227 101.227L458.54 91.3134Z" fill="#DF192B"/>
<path d="M458.54 91.3134C455.911 90.9651 453.251 91.6754 451.146 93.2882C449.04 94.901 447.662 97.2842 447.313 99.9133C446.965 102.543 447.675 105.202 449.288 107.308C450.901 109.413 453.284 110.792 455.913 111.14L457.227 101.227L458.54 91.3134Z" fill="white"/>
<path d="M457.426 85H455.211V73.9961H449.577V85H447.362V72.2031H457.426V85ZM468.298 73.9961H462.392V85H460.177V72.2031H468.298V73.9961Z" fill="#DF192B"/>
<path d="M505.54 91.3134C506.842 91.4859 508.097 91.9131 509.234 92.5706C510.371 93.2282 511.367 94.1032 512.165 95.1457C512.964 96.1882 513.549 97.3778 513.888 98.6465C514.227 99.9153 514.313 101.238 514.14 102.54C513.968 103.842 513.54 105.097 512.883 106.234C512.225 107.371 511.35 108.367 510.308 109.165C509.265 109.964 508.076 110.549 506.807 110.888C505.538 111.227 504.215 111.313 502.913 111.14L504.227 101.227L505.54 91.3134Z" fill="#DF192B"/>
<path d="M505.54 91.3134C502.911 90.9651 500.251 91.6754 498.146 93.2882C496.04 94.901 494.662 97.2842 494.313 99.9133C493.965 102.543 494.675 105.202 496.288 107.308C497.901 109.413 500.284 110.792 502.913 111.14L504.227 101.227L505.54 91.3134Z" fill="white"/>
<path d="M504.426 85H502.211V73.9961H496.577V85H494.362V72.2031H504.426V85ZM515.298 73.9961H509.392V85H507.177V72.2031H515.298V73.9961Z" fill="#DF192B"/>
<path d="M584.54 91.3134C585.842 91.4859 587.097 91.9131 588.234 92.5706C589.371 93.2282 590.367 94.1032 591.165 95.1457C591.964 96.1882 592.549 97.3778 592.888 98.6465C593.227 99.9153 593.313 101.238 593.14 102.54C592.968 103.842 592.54 105.097 591.883 106.234C591.225 107.371 590.35 108.367 589.308 109.165C588.265 109.964 587.076 110.549 585.807 110.888C584.538 111.227 583.215 111.313 581.913 111.14L583.227 101.227L584.54 91.3134Z" fill="#DF192B"/>
<path d="M584.54 91.3134C581.911 90.9651 579.251 91.6754 577.146 93.2882C575.04 94.901 573.662 97.2842 573.313 99.9133C572.965 102.543 573.675 105.202 575.288 107.308C576.901 109.413 579.284 110.792 581.913 111.14L583.227 101.227L584.54 91.3134Z" fill="white"/>
<path d="M583.426 85H581.211V73.9961H575.577V85H573.362V72.2031H583.426V85ZM594.298 73.9961H588.392V85H586.177V72.2031H594.298V73.9961Z" fill="#DF192B"/>
<path d="M632.54 91.3134C633.842 91.4859 635.097 91.9131 636.234 92.5706C637.371 93.2282 638.367 94.1032 639.165 95.1457C639.964 96.1882 640.549 97.3778 640.888 98.6465C641.227 99.9153 641.313 101.238 641.14 102.54C640.968 103.842 640.54 105.097 639.883 106.234C639.225 107.371 638.35 108.367 637.308 109.165C636.265 109.964 635.076 110.549 633.807 110.888C632.538 111.227 631.215 111.313 629.913 111.14L631.227 101.227L632.54 91.3134Z" fill="#DF192B"/>
<path d="M632.54 91.3134C629.911 90.9651 627.251 91.6754 625.146 93.2882C623.04 94.901 621.662 97.2842 621.313 99.9133C620.965 102.543 621.675 105.202 623.288 107.308C624.901 109.413 627.284 110.792 629.913 111.14L631.227 101.227L632.54 91.3134Z" fill="white"/>
<path d="M631.426 85H629.211V73.9961H623.577V85H621.362V72.2031H631.426V85ZM642.298 73.9961H636.392V85H634.177V72.2031H642.298V73.9961Z" fill="#DF192B"/>
<path d="M680.54 91.3134C681.842 91.4859 683.097 91.9131 684.234 92.5706C685.371 93.2282 686.367 94.1032 687.165 95.1457C687.964 96.1882 688.549 97.3778 688.888 98.6465C689.227 99.9153 689.313 101.238 689.14 102.54C688.968 103.842 688.54 105.097 687.883 106.234C687.225 107.371 686.35 108.367 685.308 109.165C684.265 109.964 683.076 110.549 681.807 110.888C680.538 111.227 679.215 111.313 677.913 111.14L679.227 101.227L680.54 91.3134Z" fill="#DF192B"/>
<path d="M680.54 91.3134C677.911 90.9651 675.251 91.6754 673.146 93.2882C671.04 94.901 669.662 97.2842 669.313 99.9133C668.965 102.543 669.675 105.202 671.288 107.308C672.901 109.413 675.284 110.792 677.913 111.14L679.227 101.227L680.54 91.3134Z" fill="white"/>
<path d="M679.426 85H677.211V73.9961H671.577V85H669.362V72.2031H679.426V85ZM690.298 73.9961H684.392V85H682.177V72.2031H690.298V73.9961Z" fill="#DF192B"/>
<path d="M728.54 91.3134C729.842 91.4859 731.097 91.9131 732.234 92.5706C733.371 93.2282 734.367 94.1032 735.165 95.1457C735.964 96.1882 736.549 97.3778 736.888 98.6465C737.227 99.9153 737.313 101.238 737.14 102.54C736.968 103.842 736.54 105.097 735.883 106.234C735.225 107.371 734.35 108.367 733.308 109.165C732.265 109.964 731.076 110.549 729.807 110.888C728.538 111.227 727.215 111.313 725.913 111.14L727.227 101.227L728.54 91.3134Z" fill="#DF192B"/>
<path d="M728.54 91.3134C725.911 90.9651 723.251 91.6754 721.146 93.2882C719.04 94.901 717.662 97.2842 717.313 99.9133C716.965 102.543 717.675 105.202 719.288 107.308C720.901 109.413 723.284 110.792 725.913 111.14L727.227 101.227L728.54 91.3134Z" fill="white"/>
<path d="M727.426 85H725.211V73.9961H719.577V85H717.362V72.2031H727.426V85ZM738.298 73.9961H732.392V85H730.177V72.2031H738.298V73.9961Z" fill="#DF192B"/>
<path d="M820.54 91.3134C821.842 91.4859 823.097 91.9131 824.234 92.5706C825.371 93.2282 826.367 94.1032 827.165 95.1457C827.964 96.1882 828.549 97.3778 828.888 98.6465C829.227 99.9153 829.313 101.238 829.14 102.54C828.968 103.842 828.54 105.097 827.883 106.234C827.225 107.371 826.35 108.367 825.308 109.165C824.265 109.964 823.076 110.549 821.807 110.888C820.538 111.227 819.215 111.313 817.913 111.14L819.227 101.227L820.54 91.3134Z" fill="#DF192B"/>
<path d="M820.54 91.3134C817.911 90.9651 815.251 91.6754 813.146 93.2882C811.04 94.901 809.662 97.2842 809.313 99.9133C808.965 102.543 809.675 105.202 811.288 107.308C812.901 109.413 815.284 110.792 817.913 111.14L819.227 101.227L820.54 91.3134Z" fill="white"/>
<path d="M819.426 85H817.211V73.9961H811.577V85H809.362V72.2031H819.426V85ZM830.298 73.9961H824.392V85H822.177V72.2031H830.298V73.9961Z" fill="#DF192B"/>
<path d="M887.54 91.3134C888.842 91.4859 890.097 91.9131 891.234 92.5706C892.371 93.2282 893.367 94.1032 894.165 95.1457C894.964 96.1882 895.549 97.3778 895.888 98.6465C896.227 99.9153 896.313 101.238 896.14 102.54C895.968 103.842 895.54 105.097 894.883 106.234C894.225 107.371 893.35 108.367 892.308 109.165C891.265 109.964 890.076 110.549 888.807 110.888C887.538 111.227 886.215 111.313 884.913 111.14L886.227 101.227L887.54 91.3134Z" fill="#DF192B"/>
<path d="M887.54 91.3134C884.911 90.9651 882.251 91.6754 880.146 93.2882C878.04 94.901 876.662 97.2842 876.313 99.9133C875.965 102.543 876.675 105.202 878.288 107.308C879.901 109.413 882.284 110.792 884.913 111.14L886.227 101.227L887.54 91.3134Z" fill="white"/>
<path d="M886.426 85H884.211V73.9961H878.577V85H876.362V72.2031H886.426V85ZM897.298 73.9961H891.392V85H889.177V72.2031H897.298V73.9961Z" fill="#DF192B"/>
<path d="M985.54 91.3134C986.842 91.4859 988.097 91.9131 989.234 92.5706C990.371 93.2282 991.367 94.1032 992.165 95.1457C992.964 96.1882 993.549 97.3778 993.888 98.6465C994.227 99.9153 994.313 101.238 994.14 102.54C993.968 103.842 993.54 105.097 992.883 106.234C992.225 107.371 991.35 108.367 990.308 109.165C989.265 109.964 988.076 110.549 986.807 110.888C985.538 111.227 984.215 111.313 982.913 111.14L984.227 101.227L985.54 91.3134Z" fill="#DF192B"/>
<path d="M985.54 91.3134C982.911 90.9651 980.251 91.6754 978.146 93.2882C976.04 94.901 974.662 97.2842 974.313 99.9133C973.965 102.543 974.675 105.202 976.288 107.308C977.901 109.413 980.284 110.792 982.913 111.14L984.227 101.227L985.54 91.3134Z" fill="white"/>
<path d="M984.426 85H982.211V73.9961H976.577V85H974.362V72.2031H984.426V85ZM995.298 73.9961H989.392V85H987.177V72.2031H995.298V73.9961Z" fill="#DF192B"/>
<path d="M1075.54 91.3134C1076.84 91.4859 1078.1 91.9131 1079.23 92.5706C1080.37 93.2282 1081.37 94.1032 1082.17 95.1457C1082.96 96.1882 1083.55 97.3778 1083.89 98.6465C1084.23 99.9153 1084.31 101.238 1084.14 102.54C1083.97 103.842 1083.54 105.097 1082.88 106.234C1082.23 107.371 1081.35 108.367 1080.31 109.165C1079.27 109.964 1078.08 110.549 1076.81 110.888C1075.54 111.227 1074.22 111.313 1072.91 111.14L1074.23 101.227L1075.54 91.3134Z" fill="#DF192B"/>
<path d="M1075.54 91.3134C1072.91 90.9651 1070.25 91.6754 1068.15 93.2882C1066.04 94.901 1064.66 97.2842 1064.31 99.9133C1063.97 102.543 1064.68 105.202 1066.29 107.308C1067.9 109.413 1070.28 110.792 1072.91 111.14L1074.23 101.227L1075.54 91.3134Z" fill="white"/>
<path d="M1074.43 85H1072.21V73.9961H1066.58V85H1064.36V72.2031H1074.43V85ZM1085.3 73.9961H1079.39V85H1077.18V72.2031H1085.3V73.9961Z" fill="#DF192B"/>
<path d="M291.38 91.1532C292.682 91.3257 293.937 91.7529 295.074 92.4104C296.211 93.068 297.207 93.943 298.005 94.9855C298.804 96.028 299.389 97.2176 299.728 98.4863C300.067 99.7551 300.152 101.078 299.98 102.38C299.808 103.682 299.38 104.937 298.723 106.074C298.065 107.21 297.19 108.207 296.148 109.005C295.105 109.804 293.916 110.389 292.647 110.728C291.378 111.067 290.055 111.152 288.753 110.98L290.067 101.067L291.38 91.1532Z" fill="#DF192B"/>
<path d="M291.38 91.1532C288.751 90.8048 286.091 91.5152 283.986 93.128C281.88 94.7408 280.502 97.1239 280.153 99.7531C279.805 102.382 280.515 105.042 282.128 107.148C283.741 109.253 286.124 110.632 288.753 110.98L290.067 101.067L291.38 91.1532Z" fill="white"/>
<path d="M263.426 106H261.211V94.9961H255.577V106H253.362V93.2031H263.426V106ZM274.298 94.9961H268.392V106H266.177V93.2031H274.298V94.9961Z" fill="#DF192B"/>
<path d="M1097.38 153.153C1098.68 153.326 1099.94 153.753 1101.07 154.41C1102.21 155.068 1103.21 155.943 1104.01 156.985C1104.8 158.028 1105.39 159.218 1105.73 160.486C1106.07 161.755 1106.15 163.078 1105.98 164.38C1105.81 165.682 1105.38 166.937 1104.72 168.074C1104.07 169.21 1103.19 170.207 1102.15 171.005C1101.11 171.804 1099.92 172.389 1098.65 172.728C1097.38 173.067 1096.06 173.152 1094.75 172.98L1096.07 163.067L1097.38 153.153Z" fill="#DF192B"/>
<path d="M1097.38 153.153C1094.75 152.805 1092.09 153.515 1089.99 155.128C1087.88 156.741 1086.5 159.124 1086.15 161.753C1085.8 164.382 1086.52 167.042 1088.13 169.148C1089.74 171.253 1092.12 172.632 1094.75 172.98L1096.07 163.067L1097.38 153.153Z" fill="white"/>
<path d="M1113.43 145H1111.21V133.996H1105.58V145H1103.36V132.203H1113.43V145ZM1124.3 133.996H1118.39V145H1116.18V132.203H1124.3V133.996Z" fill="#DF192B"/>
<path d="M1118.38 327.153C1119.68 327.326 1120.94 327.753 1122.07 328.411C1123.21 329.068 1124.21 329.943 1125.01 330.986C1125.8 332.028 1126.39 333.218 1126.73 334.486C1127.07 335.755 1127.15 337.078 1126.98 338.38C1126.81 339.682 1126.38 340.937 1125.72 342.074C1125.07 343.211 1124.19 344.207 1123.15 345.005C1122.11 345.804 1120.92 346.389 1119.65 346.728C1118.38 347.067 1117.06 347.153 1115.75 346.98L1117.07 337.067L1118.38 327.153Z" fill="#DF192B"/>
<path d="M1118.38 327.153C1115.75 326.805 1113.09 327.515 1110.99 329.128C1108.88 330.741 1107.5 333.124 1107.15 335.753C1106.8 338.382 1107.52 341.042 1109.13 343.148C1110.74 345.253 1113.12 346.632 1115.75 346.98L1117.07 337.067L1118.38 327.153Z" fill="white"/>
<path d="M1135.43 322H1133.21V310.996H1127.58V322H1125.36V309.203H1135.43V322ZM1146.3 310.996H1140.39V322H1138.18V309.203H1146.3V310.996Z" fill="#DF192B"/>
<path d="M862.38 344.153C863.682 344.326 864.937 344.753 866.074 345.411C867.211 346.068 868.207 346.943 869.005 347.986C869.804 349.028 870.389 350.218 870.728 351.486C871.067 352.755 871.152 354.078 870.98 355.38C870.808 356.682 870.38 357.937 869.723 359.074C869.065 360.211 868.19 361.207 867.148 362.005C866.105 362.804 864.916 363.389 863.647 363.728C862.378 364.067 861.055 364.153 859.753 363.98L861.067 354.067L862.38 344.153Z" fill="#DF192B"/>
<path d="M862.38 344.153C859.751 343.805 857.091 344.515 854.986 346.128C852.88 347.741 851.502 350.124 851.153 352.753C850.805 355.382 851.515 358.042 853.128 360.148C854.741 362.253 857.124 363.632 859.753 363.98L861.067 354.067L862.38 344.153Z" fill="white"/>
<path d="M861.426 386H859.211V374.996H853.577V386H851.362V373.203H861.426V386ZM872.298 374.996H866.392V386H864.177V373.203H872.298V374.996Z" fill="#DF192B"/>
<path d="M728.54 344.153C729.842 344.326 731.097 344.753 732.234 345.411C733.371 346.068 734.367 346.943 735.165 347.986C735.964 349.028 736.549 350.218 736.888 351.486C737.227 352.755 737.313 354.078 737.14 355.38C736.968 356.682 736.54 357.937 735.883 359.074C735.225 360.211 734.35 361.207 733.308 362.005C732.265 362.804 731.076 363.389 729.807 363.728C728.538 364.067 727.215 364.153 725.913 363.98L727.227 354.067L728.54 344.153Z" fill="#DF192B"/>
<path d="M728.54 344.153C725.911 343.805 723.251 344.515 721.146 346.128C719.04 347.741 717.662 350.124 717.313 352.753C716.965 355.382 717.675 358.042 719.288 360.148C720.901 362.253 723.284 363.632 725.913 363.98L727.227 354.067L728.54 344.153Z" fill="white"/>
<path d="M727.586 386H725.371V374.996H719.737V386H717.522V373.203H727.586V386ZM738.458 374.996H732.552V386H730.337V373.203H738.458V374.996Z" fill="#DF192B"/>
<path d="M685.54 344.153C686.842 344.326 688.097 344.753 689.234 345.411C690.371 346.068 691.367 346.943 692.165 347.986C692.964 349.028 693.549 350.218 693.888 351.486C694.227 352.755 694.313 354.078 694.14 355.38C693.968 356.682 693.54 357.937 692.883 359.074C692.225 360.211 691.35 361.207 690.308 362.005C689.265 362.804 688.076 363.389 686.807 363.728C685.538 364.067 684.215 364.153 682.913 363.98L684.227 354.067L685.54 344.153Z" fill="#DF192B"/>
<path d="M685.54 344.153C682.911 343.805 680.251 344.515 678.146 346.128C676.04 347.741 674.662 350.124 674.313 352.753C673.965 355.382 674.675 358.042 676.288 360.148C677.901 362.253 680.284 363.632 682.913 363.98L684.227 354.067L685.54 344.153Z" fill="white"/>
<path d="M684.586 386H682.371V374.996H676.737V386H674.522V373.203H684.586V386ZM695.458 374.996H689.552V386H687.337V373.203H695.458V374.996Z" fill="#DF192B"/>
<path d="M559.54 344.153C560.842 344.326 562.097 344.753 563.234 345.411C564.371 346.068 565.367 346.943 566.165 347.986C566.964 349.028 567.549 350.218 567.888 351.486C568.227 352.755 568.313 354.078 568.14 355.38C567.968 356.682 567.54 357.937 566.883 359.074C566.225 360.211 565.35 361.207 564.308 362.005C563.265 362.804 562.076 363.389 560.807 363.728C559.538 364.067 558.215 364.153 556.913 363.98L558.227 354.067L559.54 344.153Z" fill="#DF192B"/>
<path d="M559.54 344.153C556.911 343.805 554.251 344.515 552.146 346.128C550.04 347.741 548.662 350.124 548.313 352.753C547.965 355.382 548.675 358.042 550.288 360.148C551.901 362.253 554.284 363.632 556.913 363.98L558.227 354.067L559.54 344.153Z" fill="white"/>
<path d="M558.586 386H556.371V374.996H550.737V386H548.522V373.203H558.586V386ZM569.458 374.996H563.552V386H561.337V373.203H569.458V374.996Z" fill="#DF192B"/>
<path d="M376.54 344.153C377.842 344.326 379.097 344.753 380.234 345.411C381.371 346.068 382.367 346.943 383.165 347.986C383.964 349.028 384.549 350.218 384.888 351.486C385.227 352.755 385.313 354.078 385.14 355.38C384.968 356.682 384.54 357.937 383.883 359.074C383.225 360.211 382.35 361.207 381.308 362.005C380.265 362.804 379.076 363.389 377.807 363.728C376.538 364.067 375.215 364.153 373.913 363.98L375.227 354.067L376.54 344.153Z" fill="#DF192B"/>
<path d="M376.54 344.153C373.911 343.805 371.251 344.515 369.146 346.128C367.04 347.741 365.662 350.124 365.313 352.753C364.965 355.382 365.675 358.042 367.288 360.148C368.901 362.253 371.284 363.632 373.913 363.98L375.227 354.067L376.54 344.153Z" fill="white"/>
<path d="M375.586 386H373.371V374.996H367.737V386H365.522V373.203H375.586V386ZM386.458 374.996H380.552V386H378.337V373.203H386.458V374.996Z" fill="#DF192B"/>
<path d="M176.54 319.313C177.842 319.486 179.097 319.913 180.234 320.571C181.371 321.228 182.367 322.103 183.165 323.146C183.964 324.188 184.549 325.378 184.888 326.647C185.227 327.915 185.313 329.238 185.14 330.54C184.968 331.842 184.54 333.097 183.883 334.234C183.225 335.371 182.35 336.367 181.308 337.165C180.265 337.964 179.076 338.549 177.807 338.888C176.538 339.227 175.215 339.313 173.913 339.14L175.227 329.227L176.54 319.313Z" fill="#DF192B"/>
<path d="M176.54 319.313C173.911 318.965 171.251 319.675 169.146 321.288C167.04 322.901 165.662 325.284 165.313 327.913C164.965 330.543 165.675 333.202 167.288 335.308C168.901 337.413 171.284 338.792 173.913 339.14L175.227 329.227L176.54 319.313Z" fill="white"/>
<path d="M175.586 361.16H173.371V350.156H167.737V361.16H165.522V348.363H175.586V361.16ZM186.458 350.156H180.552V361.16H178.337V348.363H186.458V350.156Z" fill="#DF192B"/>
</svg>
